<svg width="25" height="26" viewBox="0 0 25 26" fill="none" xmlns="http://www.w3.org/2000/svg">
<path d="M5.88853 10.713C6.3673 9.26447 7.29129 8.00417 8.52869 7.11186C9.76609 6.21955 11.2537 5.74082 12.7792 5.74395C14.5086 5.74395 16.0721 6.35792 17.3001 7.36277L20.8733 3.79052C18.6958 1.89235 15.9053 0.720703 12.7792 0.720703C7.93917 0.720703 3.7724 3.48149 1.76883 7.52547L5.88853 10.713Z" fill="#EA4335"/>
<path d="M16.9133 19.153C15.7979 19.8723 14.3817 20.256 12.7792 20.256C11.2597 20.2592 9.77777 19.7842 8.54313 18.8985C7.30848 18.0128 6.38372 16.7612 5.89977 15.3208L1.76575 18.4592C2.78006 20.5122 4.34979 22.2395 6.29662 23.4451C8.24345 24.6507 10.4894 25.2862 12.7792 25.2793C15.7805 25.2793 18.6477 24.212 20.7956 22.2095L16.9143 19.153H16.9133Z" fill="#34A853"/>
<path d="M20.7956 22.2093C23.0417 20.1137 24.4999 16.9947 24.4999 12.9999C24.4999 12.2733 24.3883 11.4926 24.2215 10.7671H12.7793V15.512H19.3651C19.0407 17.1073 18.1679 18.3424 16.9143 19.1528L20.7956 22.2093Z" fill="#4A90E2"/>
<path d="M5.89981 15.3207C5.64947 14.5726 5.52229 13.7888 5.52325 12.9999C5.52325 12.1997 5.65115 11.4312 5.88855 10.7129L1.76886 7.52539C0.926066 9.22677 0.49161 11.1012 0.499997 12.9999C0.499997 14.9646 0.955354 16.8167 1.76579 18.4591L5.89981 15.3207Z" fill="#FBBC05"/>
</svg>
