<svg xmlns="http://www.w3.org/2000/svg" width="353" height="337" fill="none" viewBox="0 0 353 337">
  <path stroke="#263238" stroke-linecap="round" stroke-linejoin="round" stroke-width=".657" d="m327.806 313.778-2.918-27.391"/>
  <path fill="#92E3A9" stroke="#263238" stroke-linecap="round" stroke-linejoin="round" stroke-width=".657" d="M324.873 287.156s-5.24-4.079-5.24-13.406c0-9.326 6.989-16.896 6.989-16.896s7.578 9.327 5.829 18.646c-1.75 9.318-7.578 11.656-7.578 11.656Z"/>
  <path stroke="#263238" stroke-linecap="round" stroke-linejoin="round" stroke-width=".657" d="m324.888 286.387 1.335-20.583m4.275 45.953a122.128 122.128 0 0 1 9.281-18.901"/>
  <path fill="#92E3A9" stroke="#263238" stroke-linecap="round" stroke-linejoin="round" stroke-width=".657" d="M337.035 297.809s-2.911-5.979 1.206-14.325 13.737-12.063 13.737-12.063 2.677 11.709-3.016 19.301c-5.692 7.592-11.927 7.087-11.927 7.087Z"/>
  <path stroke="#263238" stroke-linecap="round" stroke-linejoin="round" stroke-width=".657" d="m337.035 297.809 10.608-17.439m-24.564 33.83a75.806 75.806 0 0 0-6.408-15.147l-4.079-7.027"/>
  <path fill="#92E3A9" stroke="#263238" stroke-linecap="round" stroke-linejoin="round" stroke-width=".657" d="M315.871 297.463a19.949 19.949 0 0 1-18.849-3.936c-9.047-7.6-8.542-23.109-8.542-23.109s17.537-2.503 24.616 7.434a20.842 20.842 0 0 1 2.775 19.611Z"/>
  <path stroke="#263238" stroke-linecap="round" stroke-linejoin="round" stroke-width=".657" d="m315.871 297.462-20.787-21.661"/>
  <path fill="#263238" stroke="#263238" stroke-linecap="round" stroke-linejoin="round" stroke-width=".657" d="M337.396 307.912h-22.188v21.759h22.188v-21.759Z"/>
  <path fill="#fff" stroke="#263238" stroke-linecap="round" stroke-linejoin="round" stroke-width=".657" d="M300.324 1H151.901v125.043h148.423V1Z"/>
  <path fill="#263238" d="M182.708 71.299h-1.207l-.203-1.373h-1.463l-.211 1.373h-1.093l1.214-7.593h1.749l1.214 7.593Zm-2.722-2.405h1.146l-.573-3.846-.573 3.846Zm4.411-5.188v5.859c0 .543.241.754.618.754s.626-.196.626-.754v-5.859h1.123v5.783c0 1.214-.603 1.908-1.779 1.908s-1.779-.694-1.779-1.908v-5.783h1.191Zm2.834 0h3.687v1.086h-1.244V71.3h-1.169v-6.507h-1.244l-.03-1.086Zm5.407 7.593h-1.199v-7.593h1.199v3.257h1.349v-3.257h1.222V71.3h-1.222v-3.25h-1.349v3.25Zm4.628-4.396h1.636v1.086h-1.636v2.262h2.059v1.085h-3.28v-7.63h3.249v1.086h-2.058l.03 2.111Zm3.861-1.063v5.496h-1.071v-7.63h1.508l1.229 4.524v-4.524h1.063V71.3h-1.229l-1.5-5.459Zm3.212-2.134h3.694v1.086h-1.251V71.3h-1.192v-6.507h-1.251v-1.086Zm4.222 0h1.191V71.3h-1.191v-7.593Zm5.518 4.765v1.01c0 1.215-.603 1.908-1.779 1.908s-1.779-.694-1.779-1.907V65.53c0-1.222.61-1.915 1.779-1.915 1.168 0 1.779.694 1.779 1.915v.754h-1.123v-.814c0-.543-.242-.754-.618-.754-.377 0-.619.21-.619.754v4.101c0 .543.234.754.619.754.384 0 .618-.188.618-.754v-1.086l1.123-.015Zm4.585 2.828h-1.206l-.204-1.373h-1.455l-.211 1.373h-1.093l1.213-7.593h1.75l1.206 7.593Zm-2.722-2.405h1.146l-.573-3.846-.573 3.846Zm2.518-5.188h3.695v1.086h-1.229V71.3h-1.191v-6.507h-1.252l-.023-1.086Zm5.406 3.197h1.636v1.086h-1.636v2.262h2.066v1.085h-3.257v-7.63h3.257v1.086h-2.066v2.111Zm5.602 1.877-1.508-5.074h1.259l.912 3.461.913-3.46h1.138l-1.508 5.074v2.518h-1.191l-.015-2.519Zm2.918-3.25a1.811 1.811 0 0 1 3.089-1.279c.34.34.53.8.53 1.28v3.95a1.807 1.807 0 0 1-1.809 1.81 1.812 1.812 0 0 1-1.81-1.81v-3.95Zm1.191 4.027c0 .543.242.754.619.754s.618-.204.618-.754v-4.102c0-.542-.241-.753-.618-.753s-.619.21-.619.754v4.101Zm4.335-5.851v5.859c0 .543.241.754.618.754s.618-.196.618-.754v-5.859h1.131v5.783c0 1.214-.603 1.908-1.779 1.908s-1.779-.694-1.779-1.908v-5.783h1.191Zm5.677 7.593c-.1-.301-.136-.62-.105-.935v-1.191c0-.702-.241-.966-.754-.966h-.415V71.3h-1.191v-7.593h1.802c1.236 0 1.764.573 1.764 1.75v.595a1.509 1.509 0 0 1-.754 1.508c.596.249.792.822.792 1.614v1.19c-.023.313.02.627.128.92l-1.267.016Zm-1.304-6.507v2.33h.505c.445 0 .717-.196.717-.8v-.753c0-.543-.181-.754-.604-.754l-.618-.023Zm8.716 6.507h-1.206l-.204-1.373h-1.47l-.204 1.373h-1.093l1.244-7.593h1.749l1.184 7.593Zm-2.722-2.405h1.146l-.603-3.808-.543 3.808Zm6.725-.423v1.01c0 1.215-.61 1.908-1.779 1.908s-1.779-.694-1.779-1.907V65.53c0-1.222.603-1.915 1.779-1.915s1.779.694 1.779 1.915v.754h-1.13v-.814c0-.543-.242-.754-.619-.754s-.618.21-.618.754v4.101c0 .543.241.754.618.754s.619-.188.619-.754v-1.086l1.13-.015Zm4.185 0v1.01c0 1.215-.603 1.908-1.779 1.908s-1.78-.694-1.78-1.907V65.53c0-1.222.611-1.915 1.78-1.915 1.168 0 1.779.694 1.779 1.915v.754h-1.131v-.814c0-.543-.234-.754-.618-.754-.385 0-.618.21-.618.754v4.101c0 .543.241.754.618.754s.618-.188.618-.754v-1.086l1.131-.015Zm.626-2.941a1.815 1.815 0 0 1 2.535-1.783 1.819 1.819 0 0 1 1.091 1.784v3.95a1.815 1.815 0 0 1-1.813 1.935 1.819 1.819 0 0 1-1.813-1.934V65.53Zm1.199 4.027c0 .543.233.754.618.754.384 0 .618-.204.618-.754v-4.102c0-.542-.241-.753-.618-.753s-.618.21-.618.754v4.101Zm4.334-5.851v5.859c0 .543.242.754.619.754s.618-.196.618-.754v-5.859h1.131v5.783c0 1.214-.603 1.908-1.779 1.908-1.177 0-1.78-.694-1.78-1.908v-5.783h1.191Zm4.246 2.134v5.496h-1.071v-7.63h1.508l1.229 4.524v-4.524h1.063V71.3h-1.229l-1.5-5.459Zm3.219-2.134h3.694v1.086h-1.251V71.3h-1.191v-6.507h-1.252v-1.086Z"/>
  <path fill="#92E3A9" d="M243.616 40.422c1.496-9.283-4.817-18.02-14.1-19.515-9.283-1.495-18.02 4.818-19.515 14.1-1.495 9.283 4.818 18.02 14.101 19.515 9.282 1.495 18.019-4.818 19.514-14.1Z"/>
  <path fill="#263238" d="M234.233 33.79a7.427 7.427 0 1 1-14.854-.002 7.427 7.427 0 0 1 14.854.002Zm-19.648 15.764a17.006 17.006 0 0 0 24.443 0v-.49a6.534 6.534 0 0 0-1.914-4.632 6.55 6.55 0 0 0-4.63-1.92h-11.347a6.552 6.552 0 0 0-6.552 6.552v.49Z"/>
  <path stroke="#263238" stroke-miterlimit="10" stroke-width=".657" d="M277.827 84.983H175.123V97.47h102.704V84.983Z"/>
  <path fill="#92E3A9" stroke="#263238" stroke-miterlimit="10" stroke-width=".657" d="M277.827 103.704H175.123v12.485h102.704v-12.485Z"/>
  <path fill="#BDBDBD" d="M209.571 91.58v.754h-1.855v2.7h2.262v.753h-3.122v-7.57h3.122v.755h-2.262v2.593l1.855.015Zm1.952 4.237h-.753v-7.6h1.108l1.757 5.49v-5.49h.754v7.6h-.883l-1.945-6.144-.038 6.144Zm4.796 0v-6.83h-1.425v-.755h3.649v.754h-1.387v6.831h-.837Zm5.534-4.237v.754h-1.855v2.7h2.262v.753h-3.121v-7.57h3.121v.755h-2.262v2.593l1.855.015Zm2.895-3.362c1.199 0 1.697.61 1.697 1.734v.618a1.424 1.424 0 0 1-.943 1.568c.694.204.95.754.95 1.583v1.184c-.022.312.03.624.151.912h-.852a1.988 1.988 0 0 1-.143-.927v-1.153c0-.86-.4-1.131-1.108-1.131h-.558v3.25h-.845v-7.638h1.651Zm-.211 3.58c.671 0 1.071-.218 1.071-1.04v-.754c0-.678-.249-1.04-.882-1.04h-.784v2.812l.595.023Zm7.834-1.748v.67h-.807v-.753c0-.686-.271-1.101-.89-1.101-.618 0-.889.415-.889 1.1v4.012c0 .686.279 1.1.889 1.1.611 0 .89-.414.89-1.1v-.988h.807v.943c0 1.153-.551 1.915-1.719 1.915-1.169 0-1.704-.754-1.704-1.915v-3.929c0-1.146.543-1.907 1.704-1.907s1.719.807 1.719 1.953Zm.7 0c0-1.161.573-1.908 1.734-1.908s1.75.754 1.75 1.908v3.928c0 1.153-.573 1.915-1.75 1.915-1.176 0-1.734-.754-1.734-1.915V90.05Zm.837 3.973c0 .694.294 1.1.897 1.1.604 0 .905-.406.905-1.1v-4.011c0-.686-.286-1.1-.905-1.1-.618 0-.897.414-.897 1.1v4.011Zm5.225-5.805c1.184 0 1.727.716 1.727 1.892v3.83c0 1.161-.543 1.877-1.727 1.877h-1.779v-7.6h1.779Zm0 6.785c.603 0 .898-.377.898-1.07v-3.906c0-.694-.295-1.078-.913-1.078h-.912v6.032l.927.022Zm5.218-3.423v.754h-1.855v2.7h2.262v.753h-3.129v-7.57h3.129v.755h-2.262v2.593l1.855.015Z"/>
  <path fill="#263238" d="M219.568 107.006c1.176 0 1.719.754 1.719 1.893v3.83c0 1.161-.543 1.877-1.719 1.877h-1.787v-7.6h1.787Zm0 6.831c.611 0 .905-.385.905-1.078v-3.906c0-.693-.294-1.07-.912-1.07h-.898v6.031l.905.023Zm2.451-5.021c0-1.162.573-1.915 1.734-1.915s1.749.753 1.749 1.915v3.928a1.675 1.675 0 0 1-1.749 1.907c-1.161 0-1.734-.754-1.734-1.907v-3.928Zm.829 3.973c0 .694.294 1.093.905 1.093s.897-.399.897-1.093v-3.973c0-.687-.279-1.101-.897-1.101s-.905.414-.905 1.101v3.973Zm4.199 1.817h-.754v-7.6h1.071l1.757 5.496v-5.496h.754v7.6h-.882l-1.946-6.145v6.145Zm6.394-4.23v.754h-1.854v2.707h2.261v.754h-3.121v-7.585h3.129v.754h-2.262v2.594l1.847.022Z"/>
  <path fill="#92E3A9" stroke="#263238" stroke-linecap="round" stroke-linejoin="round" stroke-width=".657" d="M300.324 1H151.901v6.047h148.423V1Z"/>
  <path stroke="#263238" stroke-linecap="round" stroke-linejoin="round" stroke-width=".657" d="M52.583 194.216V193.1"/>
  <path stroke="#263238" stroke-dasharray="1.95 1.95" stroke-linecap="round" stroke-linejoin="round" stroke-width=".657" d="M52.583 190.891V95.297a14.7 14.7 0 0 1 14.71-14.702h69.944"/>
  <path stroke="#263238" stroke-linecap="round" stroke-linejoin="round" stroke-width=".657" d="M138.375 80.595h1.108"/>
  <path fill="#263238" d="m146.835 81.206-12.018-6.944v13.88l12.018-6.936Z"/>
  <path stroke="#263238" stroke-linecap="round" stroke-linejoin="round" stroke-width=".657" d="M261.564 287.322h1.116"/>
  <path stroke="#263238" stroke-dasharray="1.95 1.95" stroke-linecap="round" stroke-linejoin="round" stroke-width=".657" d="M264.889 287.322h4.124a14.755 14.755 0 0 0 14.755-14.755V133.085"/>
  <path stroke="#263238" stroke-linecap="round" stroke-linejoin="round" stroke-width=".657" d="M283.768 131.984v-1.108"/>
  <path fill="#263238" d="m257.357 286.674 12.018 6.936v-13.88l-12.018 6.944Z"/>
  <path fill="#fff" stroke="#263238" stroke-linecap="round" stroke-linejoin="round" stroke-width=".657" d="M194.379 196.169a7.542 7.542 0 0 1 6.695-4.034h64.501s4.659 0 3.265 8.859c-1.395 8.859-20.516 62.948-25.183 79.264-4.667 16.315-5.594 50.824-5.594 50.824h-77.401s6.205-82.385 33.717-134.913Z"/>
  <path fill="#263238" stroke="#263238" stroke-linecap="round" stroke-linejoin="round" stroke-width=".657" d="M254.386 207.524c-6.522 15.214-20.357 75.395-22.558 123.558h6.235s.957-34.531 5.594-50.824c4.637-16.293 23.78-70.405 25.182-79.264 1.403-8.859-3.264-8.859-3.264-8.859s-5.964 3.19-11.189 15.389Z"/>
  <path fill="#263238" stroke="#263238" stroke-linecap="round" stroke-linejoin="round" stroke-width=".657" d="M131.733 193.357s-11.837-1.44-19.656-9.659c-7.818-8.218 16.994-37.524 30.241-44.43 13.247-6.906 18.706-5.014 32.91 5.459 14.205 10.472 28.07 27.278 27.897 38.549-.174 11.272-6.311 16.663 2.262 22.219 8.572 5.557 32.834 21.337 36.378 32.179 3.543 10.842-2.601 24.33-16.828 31.666-14.228 7.336-37.57 6.997-60.053-.271-22.483-7.268-27.376-30.264-24.481-39.621 2.895-9.356 10.556-15.787 8.248-22.905-2.307-7.117-16.918-13.186-16.918-13.186Z"/>
  <path fill="#92E3A9" d="M141.881 225.679s-12.245-1.704-17.899 1.952c-5.655 3.657-33.597 51.413-33.597 51.413l-15.433-20.772-13.383 6.009s6.273 24.278 13.572 36.356c7.298 12.078 11.46 13.3 13.963 12.9 7.449-1.184 29.027-26.147 29.027-26.147l7.841 26.087-5.323 18.962h99.145l-12.025-20.055s15.69-72.38 11.694-80.048c-3.996-7.668-27.279-6.657-34.599-6.657h-20.96c-3.177.63-6.405.963-9.643.995a121.816 121.816 0 0 1-12.38-.995Z"/>
  <path fill="#fff" d="m208.109 228.121.203.083-1.9 4.841-.211-.083 1.908-4.841Zm-.521 5.384.204.083 1.907-4.841-.211-.083-1.9 4.841Zm8.648 15.403-.218-.06-.837 2.978h.233l.822-2.918Zm1.433.407-.219-.06-.754 2.571h.226l.747-2.511Zm-9.048.166.709 2.345h.234l-.754-2.413-.189.068Zm1.644-.49-.219.06.837 2.775h.234l-.852-2.835Zm6.069-11.076 2.586-4.523-.188-.114-2.586 4.524.188.113Zm1.297.754 2.42-4.229c0-.129 0-.242-.045-.362l-2.571 4.486.196.105Zm1.696 6.431.43-.565.045-.415-.655.845.18.135Zm-6.401-4.591 3.604 3.77.159-.151-3.604-3.77-.159.151Zm-1.138 1.003 3.596 3.769.166-.15-3.604-3.77-.158.151Zm-3.973 0 .06-.219-2.782-.686v.226l2.722.679Zm-2.76-2.262 3.129.791.053-.218-3.144-.754-.038.181Zm3.491 6.733-.068-.212-3.385 1.177v.233l3.453-1.198Zm-.535-1.629-2.956.98v.234l3.016-1.003-.06-.211Zm-1.636 42.124 1.9-4.841-.204-.083-1.908 4.841.212.083Zm3.076-4.381-1.9 4.84.203.083 1.908-4.84-.211-.083Zm-.098 22.694-.581-1.938-.219.061.709 2.337.091-.46Zm3.769-32.556-.211.076 1.765 4.893h.045l.068-.339-1.667-4.63Zm1.184-.429.928 2.555c0-.143.052-.286.075-.437l-.792-2.194-.211.076Zm3.302-12.742.121.399.068-.452-.189.053Zm-4.961-.294-.301 5.187h.218l.302-5.195-.219.008Zm1.184 5.277h.219l.301-5.194h-.218l-.302 5.194Zm-6.341-5.504.106-.196-2.563-1.379v.256l2.457 1.319Zm-2.457-3.015 3.159 1.696.105-.196-3.204-1.696-.06.196Zm1.975 7.848-.143-.166-1.772 1.674v.294l1.915-1.802Zm-.973-1.123-.143-.173-.859.753v.295l1.002-.875Zm-.942 8.919v.234l4.689-1.832-.083-.204-4.606 1.802Zm0-1.598v.241l4.147-1.621-.083-.211-4.064 1.591Zm2.767 9.439.053-.218-2.82-.634v.227l2.767.625Zm.324-1.447.053-.219-3.144-.709v.227l3.091.701Zm-.369 17.476.06-.211-2.82-.716v.234l2.76.693Zm-2.722-2.261 3.129.799.053-.219-3.182-.799v.219Zm3.491 6.732-.068-.211-3.423 1.131v.241l3.491-1.161Zm-.468-1.409-.068-.212-2.955.981v.233l3.023-1.002Zm6.703-44.197.595-2.089h-.233l-.573 2.028.211.061Zm2.134-2.089h-.227l-.686 2.428.211.068.702-2.496Zm-6.861 2.632.218-.061-.754-2.571h-.234l.77 2.632Zm1.636-.491-.641-2.141h-.234l.663 2.209.212-.068Zm1.244 71.89 1.764 4.886.211-.076-1.764-4.885-.211.075Zm3.37 4.305-1.764-4.886-.212.076 1.772 4.886.204-.076Zm2.495 1.206-.218-.06-.317 1.131h.234l.301-1.071Zm-13.744-20.598 2.458 1.32.105-.196-2.563-1.38v.256Zm0-1.688 3.016 1.651.045-.226-3.061-1.674v.249Zm1.937 7.833-.143-.173-1.794 1.606v.286l1.937-1.719Zm-.972-1.131-.143-.166-.86.754v.294l1.003-.882Zm3.604 7.057-4.569 1.825v.241l4.689-1.84-.12-.226Zm-4.607.445 4.147-1.621-.083-.204-4.064 1.584v.241Zm0 8.346v.234l2.496.558h.286l.038-.151-2.82-.641Zm3.091-.595.053-.219-3.144-.709v.234l3.091.694Zm-55.468-98.09.203.083 1.908-4.84-.211-.083-1.9 4.84Zm1.38.543.211.083 1.9-4.84-.204-.083-1.907 4.84Zm48.72 6.748 2.262.58v-.226l-2.224-.565-.038.211Zm.422-1.651-.06.211 1.915.49v-.234l-1.855-.467Zm1.893 8.602v-.233l-1.508.505.068.211 1.44-.483Zm-2.021-1.146.068.211 1.915-.633v-.234l-1.983.656Zm-4.011 5.791h.257l.98-1.704-.189-.113-1.048 1.817Zm1.719 0h.257l.55-.965-.189-.113-.618 1.078Zm-11.211-2.081-.174.143 1.591 1.938h.287l-1.704-2.081Zm.98-.799 2.36 2.88h.286l-2.473-3.016-.173.136Zm-5.624 2.54-.204.076.09.264h.242l-.128-.34Zm1.191-.429.279.754h.233l-.301-.845-.211.091Zm-8.158.754.641-2.526-.219-.053-.656 2.579h.234Zm1.862-2.217-.565 2.217h.203l.551-2.157-.189-.06Zm-17.092-.701-.219-.06-.844 2.978h.234l.829-2.918Zm1.425.407-.211-.06-.754 2.571h.234l.731-2.511Zm-9.047.166.708 2.345h.234l-.754-2.413-.188.068Zm1.636-.49-.211.06.836 2.775h.227l-.852-2.835Zm6.077-11.076 2.586-4.524-.196-.113-2.586 4.524.196.113Zm1.1.634.189.105 2.586-4.524-.196-.113-2.579 4.532Zm29.503 3.317 4.787 2.028.083-.204-4.787-2.028-.083.204Zm-.581 1.365 4.788 2.028.083-.204-4.826-2.02-.045.196Zm4.034-7.811.211.06 1.417-4.999-.218-.068-1.41 5.007Zm1.425.407.218.06 1.41-5.006-.211-.061-1.417 5.007Zm-7.781-9.304 1.508 4.976.211-.06-1.47-4.991-.249.075Zm1.417-.43 1.508 4.976.211-.06-1.508-4.976-.211.06Zm-16.428 21.314L174 242.416l-.211.061 1.508 4.983.211-.068Zm1.425-.429-1.508-4.976-.219.06 1.508 4.984.219-.068Zm5.88-2.88 5.15-.754v-.219l-5.15.754v.219Zm.212 1.47 5.149-.754v-.219l-5.149.754v.219Zm3.769-6.341.219.053 1.161-5.067-.219-.052-1.161 5.066Zm2.609-4.735-1.161 5.067.219.053 1.161-5.067-.219-.053Zm-18.238 1.847.188.121 2.782-4.395-.188-.114-2.782 4.388Zm4.23-3.475-.189-.121-2.782 4.396.188.12 2.783-4.395Zm-4.833-5.059 4.765-2.081v-.053h-.407l-4.426 1.93.068.204Zm.505 1.153.09.204 4.765-2.074-.09-.203-4.765 2.073Zm-4.524-3.287h-.234l-1.176 4.086.219.061 1.191-4.147Zm-2.601 3.77 1.055-3.77h-.233l-1.041 3.679.219.091Zm20.402-2.172-.513-1.575h-.233l.49 1.628.256-.053Zm-1.636.49.219-.06-.604-1.998h-.233l.618 2.058Zm-17.07 17.236.174.136 3.166-4.125-.181-.135-3.159 4.124Zm1.177.905.18.135 3.16-4.131-.174-.136-3.166 4.132Zm-7.404-5.361 3.604 3.77.165-.151-3.603-3.77-.166.151Zm-1.116.988 3.604 3.769.158-.15-3.596-3.77-.166.151Zm19.738-6.665-.09.203 4.787 2.036.091-.211-4.788-2.028Zm.49-1.161 4.788 2.028.091-.204-4.788-2.028-.091.204Zm-24.194 7.826.053-.219-2.82-.686v.226l2.767.679Zm-2.759-2.262 3.121.791.06-.218-3.189-.754.008.181Zm3.49 6.733-.075-.212-3.423 1.177v.233l3.498-1.198Zm-.542-1.629-2.948.98v.234l3.015-1.003-.067-.211Zm.06 37.2-1.9 4.841.203.083 1.908-4.841-.211-.083Zm1.387.543-1.907 4.84.211.083 1.9-4.84-.204-.083Zm46.972-26.019 2.118 1.146v-.256l-2.013-1.086-.105.196Zm.806-1.508-.105.189 1.417.754v-.257l-1.312-.686Zm1.35 10.314-2.104 1.825.144.166 1.96-1.697v-.294Zm-2.933.867 2.933-2.533v-.294l-3.076 2.654.143.173Zm2.699 5.549.075.212.159-.068v-.234l-.234.09Zm-.543-1.379.076.203.701-.271v-.241l-.777.309Zm.754 8.293-2.262-.513-.052.219 2.307.52.007-.226Zm0-1.508-1.93-.437-.045.219 1.975.444v-.226Zm0 17.454-2.239-.625-.053.218 2.262.581.03-.174Zm-1.855-2.005-.06.218 1.938.408v-.227l-1.878-.399Zm1.878 8.519v-.241l-1.508.505.068.211 1.44-.475Zm0-1.568v-.233l-1.983.655.068.212 1.915-.634Zm-30.611-44.641-4.787-2.036-.083.203 4.787 2.036.083-.203Zm-5.451-.46 4.788 2.028.083-.204-4.788-2.028-.083.204Zm31.252 49.602-.189-.105-1.033 1.817h.257l.965-1.712Zm1.289.754-.189-.113-.618 1.086h.256l.551-.973Zm-12.192-.972 1.591 1.945h.287l-1.704-2.089-.174.144Zm1.154-.943 2.36 2.888h.286l-2.473-3.016-.173.128Zm-5.625 2.549-.203.075.09.264h.242l-.129-.339Zm1.192-.43.279.754h.233l-.301-.845-.211.091Zm-7.54-1.757-.219-.06-.655 2.586h.263l.611-2.526Zm1.222.309-.566 2.217h.241l.551-2.164-.226-.053Zm-17.093-.708-.218-.061-.845 3.016h.234l.829-2.955Zm1.425.407-.211-.061-.754 2.579h.234l.731-2.518Zm-9.047.166.709 2.352h.233l-.754-2.413-.188.061Zm1.425-.423.837 2.775h.226l-.852-2.842-.211.067Zm8.678-15.757-2.586 4.523.196.114 2.586-4.524-.196-.113Zm1.508.844-.196-.113-2.579 4.524.189.113 2.586-4.524Zm21.028-24.775-3.318-4.018-.166.143 3.288 4.026.196-.151Zm-1.146.943-3.333-4.042-.173.144 3.294 4.026.212-.128Zm-8.151-2.202 1.765 4.886.211-.076-1.765-4.885-.211.075Zm1.403-.505 1.764 4.886.204-.076-1.765-4.885-.203.075Zm18.464 36.084-4.788-2.028-.082.204 4.787 2.028.083-.204Zm-.58 1.372-4.788-2.035-.083.211 4.788 2.028.083-.204Zm.573-14.641-1.41 5.006.211.06 1.417-5.006-.218-.06Zm1.643.467-.211-.06-1.417 4.998.218.061 1.41-4.999Zm-7.668.535-1.508-4.976-.211.061 1.508 4.983.211-.068Zm1.425-.429-1.508-4.976-.218.06 1.508 4.983.218-.067Zm-15.079-13.021-2.586 4.524.189.105 2.586-4.524-.189-.105Zm-1.1-.626-.197-.113-2.578 4.524.188.105 2.587-4.516Zm-8.784 4.109-3.295-4.041-.173.143 3.295 4.026.173-.128Zm1.146-.942-3.287-4.026-.174.143 3.288 4.026.173-.143Zm-10.405-1.636 1.765 4.893.211-.076-1.772-4.893-.204.076Zm1.395-.506 1.764 4.894.212-.076-1.765-4.893-.211.075Zm35.956 3.959.219.052 1.282-5.036-.219-.06-1.282 5.044Zm2.941-4.622-.219-.053-1.282 5.037.219.052 1.282-5.036Zm-8.505 4.23-4.788-2.029-.082.204 4.787 2.036.083-.211Zm.581-1.365-4.818-2.028-.083.203 4.788 2.029.113-.204Zm-16.308 26.811L174 295.902l-.211.068 1.508 4.976.211-.06Zm1.425-.43-1.508-4.984-.219.068 1.508 4.976.219-.06Zm11.03-3.612v-.218l-5.15.754v.218l5.15-.754Zm.211 1.471v-.219l-5.149.754v.219l5.149-.754Zm-1.176-5.534 1.161-5.067-.219-.053-1.161 5.074.219.046Zm1.447.331 1.162-5.066-.219-.053-1.161 5.074.218.045Zm-14.325-7.539-.188-.121-2.767 4.366.188.12 2.767-4.365Zm1.259.791-.188-.12-2.782 4.395.188.121 2.782-4.396Zm-.067-7.14-.083-.203-4.773 2.081.091.203 4.765-2.081Zm.595 1.365-.09-.203-4.765 2.08.09.204 4.765-2.081Zm-9.16-2.262-.211-.068-1.403 4.969.219.06 1.395-4.961Zm-2.843 4.599 1.41-5.006-.211-.06-1.417 5.006.218.06Zm20.395-2.209-1.508-4.976-.219.061 1.508 4.983.219-.068Zm-3.129-4.523 1.508 4.976.218-.061-1.508-4.976-.218.061Zm-7.231-12.818-4.154 3.137.136.173 4.154-3.129-.136-.181Zm-3.121 4.524 4.147-3.136-.128-.174-4.155 3.129.136.181Zm-3.589-4.305-1.44-4.999-.219.068 1.448 4.991.211-.06Zm-3.083-4.524 1.44 5.059.218-.06-1.425-5.014-.233.015Zm-4.962-.294-.301 5.187h.219l.301-5.194-.219.007Zm1.177 5.278h.226l.301-5.195h-.226l-.301 5.195Zm8.542 30.392-.181-.136-3.159 4.132.173.135 3.167-4.131Zm1.176.905-.173-.136-3.167 4.132.181.135 3.159-4.131Zm-10.744-1.373 3.604 3.77.166-.158-3.604-3.77-.166.158Zm-1.04 1.063 3.604 3.77.158-.151-3.596-3.769-.166.15Zm37.863-28.959-.173-.136-3.272 4.042.173.143 3.272-4.049Zm-1.327-1.071-3.272 4.042.174.143 3.264-4.049-.166-.136Zm.913-7.667h-.219l-.588 5.164h.226l.581-5.164Zm-1.697-.196-.58 5.172h.218l.581-5.165-.219-.007Zm-11.226 33.249-4.788-2.028-.09.204 4.787 2.028.091-.204Zm-4.298-3.197 4.788 2.028.091-.203-4.788-2.028-.091.203Zm-24.496-28.582.106-.196-2.563-1.38v.256l2.457 1.32Zm-2.457-3.016 3.159 1.696.105-.196-3.272-1.771.008.271Zm1.975 7.849-.151-.166-1.832 1.598v.294l1.983-1.726Zm-.973-1.124-.15-.173-.852.754v.294l1.002-.875Zm3.597 7.057-4.599 1.802v.234l4.682-1.832-.083-.204Zm-.46-1.176-.076-.211-4.071 1.576v.241l4.147-1.606Zm-1.372 10.819.045-.218-2.812-.634v.227l2.767.625Zm-2.775-2.163 3.091.701.053-.219-3.144-.709v.227Zm2.767 18.177.053-.211-2.812-.716v.234l2.759.693Zm-2.767-2.261 3.121.799.061-.219-3.182-.799v.219Zm3.491 6.732-.076-.211-3.415 1.131v.241l3.491-1.161Zm-.468-1.409-.075-.212-2.948.981v.233l3.023-1.002Zm42.915-43.587.189.106 1.606-2.805h-.234l-1.561 2.699Zm1.29.754.188.106 2.036-3.544h-.256l-1.968 3.438Zm-5.949-1.508-1.591-1.945h-.286l1.704 2.081.173-.136Zm.98-.799.174-.143-.822-1.003h-.287l.935 1.146Zm-7.147 3.408-1.644-4.524h-.241l1.674 4.63.211-.106Zm1.183-.43.212-.075-1.463-4.049h-.234l1.485 4.124Zm-10.781-1.666.218.053.641-2.511h-.233l-.626 2.458Zm1.44.37.219.052.754-2.88h-.234l-.739 2.828Zm-17.228-.754.588-2.089h-.234l-.573 2.028.219.061Zm2.134-2.089h-.234l-.686 2.428.219.068.701-2.496Zm-6.861 2.631.211-.06-.754-2.571h-.234l.777 2.631Zm1.636-.49-.649-2.141h-.226l.656 2.209.219-.068Zm44.838 55.454-.106.196 2.119 1.146v-.257l-2.013-1.085Zm.701-1.305-.106.196 1.418.754v-.248l-1.312-.702Zm1.357 10.533v-.286l-2.104 1.817.144.166 1.96-1.697Zm0-1.96v-.294l-3.076 2.661.143.166 2.933-2.533Zm-.234 8.082.075.211.159-.06v-.241l-.234.09Zm-.543-1.379.076.211.701-.279v-.242l-.777.31Zm-1.508 7.773-.052.218 2.307.521v-.234l-2.255-.505Zm2.262-1.018-1.93-.437-.045.218 1.975.453v-.234Zm-30.588-22.174-4.787-2.028-.083.204 4.787 2.028.083-.204Zm-5.451-.46 4.788 2.036.083-.211-4.788-2.028-.083.203Zm15.192 4.969 3.288 4.026.173-.143-3.295-4.019-.166.136Zm2.315 4.825-3.31-4.018-.173.135 3.294 4.026.189-.143Zm-6.175 2.639-1.764-4.893-.211.075 1.764 4.893.211-.075Zm1.395-.505-1.764-4.893-.204.075 1.764 4.893.204-.075Zm-3.016 5.662-.188-.113-2.586 4.524.188.113 2.586-4.524Zm-1.289-.754-.196-.105-2.579 4.523.189.113 2.586-4.531Zm-8.784 4.109-3.257-3.988-.173.135 3.295 4.027.135-.174Zm1.146-.942-3.287-4.019-.173.136 3.287 4.026.173-.143Zm-8.429 3.181-1.772-4.885-.203.075 1.764 4.886.211-.076Zm1.395-.505-1.764-4.885-.212.075 1.765 4.886.211-.076Zm35.436-5.828-.219-.053-1.282 5.037.219.053 1.282-5.037Zm1.44.362-.219-.053-1.282 5.044.219.053 1.282-5.044Zm-8.422 4.267-4.788-2.028-.082.204 4.787 2.028.083-.204Zm.581-1.372-4.818-2.066-.083.204 4.788 2.036.113-.174Zm-25.288 4.155-.211.753h.234l.188-.663-.211-.09Zm-1.221-.347-.211-.061-.325 1.131h.234l.302-1.07Zm17.28-2.081.95 3.151h.234l-.965-3.219-.219.068Zm-1.206.362-.211.06.814 2.729h.234l-.837-2.789Zm-7.306-12.539-.136-.173-4.154 3.129.136.181 4.154-3.137Zm.89 1.192-.128-.181-4.155 3.129.136.181 4.147-3.129Zm-7.947-1.109.211-.068-1.44-4.991-.219.061 1.448 4.998Zm-1.214.347-1.425-5.029-.211.061 1.44 4.991.196-.023Zm-6.702 0 .301-5.187h-.219l-.301 5.195.219-.008Zm1.507.091.302-5.195h-.226l-.302 5.187.226.008Zm35.572 1.945-.173-.143-3.273 4.041.174.143 3.272-4.041Zm-1.327-1.078-3.272 4.041.173.143 3.265-4.041-.166-.143Zm.912-7.661h-.218l-.588 5.165h.226l.58-5.165Zm-1.696-.188-.581 5.165h.219l.581-5.173-.219.008Zm-40.02 1.463.106-.196-2.564-1.38v.256l2.458 1.32Zm.807-1.508-3.295-1.817v.249l3.159 1.703.136-.135Zm-1.312 6.265-.151-.173-1.832 1.598v.294l1.983-1.719Zm-.973-1.131-.15-.166-.852.754v.294l1.002-.882Zm3.597 7.057-4.599 1.802v.241l4.682-1.839-.083-.204Zm-4.599.445 4.139-1.621-.076-.204-4.063 1.584v.241Zm0 8.346v.234l2.495.558h.279l.038-.151-2.812-.641Zm3.091-.595.053-.219-3.144-.709v.234l3.091.694Zm43.036-22.928 1.605-2.805h-.241l-1.508 2.692.144.113Zm3.068-2.805-1.968 3.431.189.113 2.035-3.544h-.256Zm-8.09 2.081.174-.143-1.591-1.938h-.287l1.704 2.081Zm1.154-.942.173-.144-.822-.995h-.286l.935 1.139Zm-7.148 3.408-1.643-4.524h-.242l1.674 4.622.211-.098Zm1.184-.423.211-.083-1.463-4.041h-.233l1.485 4.124Zm-10.555-1.613.64-2.511h-.233l-.626 2.458.219.053Zm1.221.309.219.053.754-2.873h-.234l-.739 2.82Zm-17.228-.754.588-2.081h-.234l-.573 2.021.219.06Zm1.9-2.081-.686 2.428.219.06.701-2.488h-.234Zm-6.627 2.631.211-.067-.754-2.564h-.234l.777 2.631Zm1.417-.429.219-.061-.649-2.141h-.226l.656 2.202Zm-8.693-67.23 2.262.58v-.226l-2.224-.566-.038.212Zm.422-1.652-.052.211 1.915.491v-.234l-1.863-.468Zm1.84 8.58v-.233l-1.508.505.076.211 1.432-.483Zm-1.975-1.146.068.211 1.915-.633v-.234l-1.983.656Zm-4.057 5.791h.257l.98-1.704-.196-.113-1.041 1.817Zm1.712 0h.256l.558-.965-.196-.113-.618 1.078Zm-11.204-2.081-.173.143 1.591 1.938h.286l-1.704-2.081Zm.98-.799 2.353 2.88h.294l-2.473-3.016-.174.136Zm-5.624 2.54-.211.076.098.264h.233l-.12-.34Zm1.191-.429.271.754h.242l-.302-.845-.211.091Zm-8.165.754.64-2.526-.211-.053-.656 2.579h.227Zm1.869-2.217-.565 2.217h.234l.543-2.157-.212-.06Zm-17.921 2.217.822-2.918-.211-.06-.845 2.978h.234Zm2.262-2.511-.219-.06-.754 2.571h.234l.739-2.511Zm29.238-7.449 4.788 2.028.09-.204-4.787-2.028-.091.204Zm-.58 1.365 4.81 2.065.09-.203-4.787-2.058-.113.196Zm4.033-7.811.219.06 1.41-4.999-.211-.068-1.418 5.007Zm1.433.407.211.06 1.417-5.006-.211-.061-1.417 5.007Zm-7.728-9.304 1.508 4.976.211-.06-1.508-4.991-.211.075Zm1.425-.43 1.508 4.976.211-.06-1.508-4.976-.211.06Zm-18.14 16.399 1.507 4.983.212-.068-1.508-4.976-.211.061Zm3.136 4.523-1.508-4.976-.211.061 1.508 4.983.211-.068Zm5.881-2.88 5.149-.754v-.218l-5.149.754v.218Zm.173 1.252v.219l5.15-.754v-.219l-5.15.754Zm5.172-11.136-.218-.053-1.154 5.067.211.053 1.161-5.067Zm1.237.279-1.161 5.067.211.052 1.161-5.066-.211-.053Zm-18.276 1.809.189.121 2.782-4.395-.189-.114-2.782 4.388Zm1.259.8.189.12 2.782-4.395-.189-.121-2.782 4.396Zm11.898-9.9-.483-1.606h-.226l.497 1.636.212-.03Zm-1.637.49.212-.06-.536-1.794-.218.045.542 1.809Zm-17.069 17.236.173.135 3.159-4.124-.173-.135-3.159 4.124Zm4.524-3.092-.181-.135-3.159 4.131.181.136 3.159-4.132Zm7.916-7.004-.083.204 4.788 2.035.083-.211-4.788-2.028Zm.498-1.161 4.787 2.028.083-.203-4.787-2.028-.083.203Zm-23.946 47.914-1.9 4.84.204.083 1.9-4.84-.204-.083Zm1.38.543-1.9 4.84.204.083 1.907-4.84-.211-.083Zm46.971-26.019 2.126 1.146v-.256l-2.02-1.086-.106.196Zm.815-1.508-.106.188 1.417.754v-.256l-1.311-.686Zm1.319 10.261-2.111 1.825.151.166 1.96-1.697v-.294Zm-2.933.867 2.933-2.533v-.294l-3.076 2.654.143.173Zm2.692 5.549.083.212.158-.068v-.234l-.241.09Zm.241-1.688-.754.309.083.203.701-.271-.03-.241Zm0 8.587-2.262-.513-.045.219 2.307.52v-.226Zm-1.93-1.96-.053.218 1.983.445v-.226l-1.93-.437Zm1.93 17.853-2.224-.565-.06.219 2.261.58.023-.234Zm-1.862-2.005-.053.219 1.915.475v-.227l-1.862-.467Zm1.862 8.587v-.241l-1.508.505.076.211 1.432-.475Zm0-1.568v-.233l-1.983.655.068.212 1.915-.634Zm-35.436-46.474 4.788 2.036.09-.203-4.787-2.036-.091.203Zm-.58 1.373 4.787 2.028.091-.204-4.788-2.028-.09.204Zm31.259 49.602-.196-.105-1.079 1.817h.257l1.018-1.712Zm1.289.754-.196-.113-.618 1.086h.256l.558-.973Zm-12.192-.972 1.591 1.945h.287l-1.704-2.089-.174.144Zm1.154-.943 2.352 2.888h.294l-2.473-3.016-.173.128Zm-5.625 2.549-.211.075.098.264h.234l-.121-.339Zm1.192-.43.271.754h.241l-.301-.845-.211.091Zm-8.392.754h.226l.641-2.526-.211-.06-.656 2.586Zm2.096-2.217-.565 2.217h.233l.543-2.164-.211-.053Zm-24.526-.196-.211.061.415 1.372.18-.166-.384-1.267Zm1.425-.43-.219.068.204.649.173-.174-.158-.543Zm8.663-15.584-.196-.105-2.586 4.523.196.113 2.586-4.531Zm-1.297 5.278 2.586-4.524-.196-.113-2.586 4.524.196.113Zm23.629-29.314-3.317-4.003-.174.143 3.295 4.026.196-.166Zm-1.154.943-3.294-4.027-.166.144 3.287 4.026.173-.143Zm-8.142-2.202 1.764 4.886.211-.076-1.764-4.885-.211.075Zm1.395-.505 1.764 4.885.211-.075-1.764-4.886-.211.076Zm18.456 36.084-4.787-2.028-.091.204 4.788 2.028.09-.204Zm-.58 1.372-4.788-2.035-.09.211 4.787 2.028.091-.204Zm.573-14.641-1.418 5.006.219.06 1.41-5.006-.211-.06Zm1.643.467-.211-.06-1.425 4.998.212.061 1.424-4.999Zm-7.667.535-1.508-4.976-.211.061 1.508 4.983.211-.068Zm1.425-.429-1.508-4.977-.211.061 1.508 4.983.211-.067Zm-15.079-13.021-2.586 4.523.196.106 2.586-4.524-.196-.105Zm-1.29-.754-2.586 4.524.196.105 2.586-4.524-.196-.105Zm-12.063.339 3.295 4.026.166-.143-3.272-4.011-.189.128Zm1.146-.942 3.295 4.026.173-.144-3.242-4.011-.226.129Zm-6.944 2.261 1.764 4.894.212-.076-1.765-4.893-.211.075Zm1.403-.505 1.764 4.893.203-.075-1.764-4.893-.203.075Zm35.926 3.974.218.052 1.274-5.036-.211-.06-1.281 5.044Zm2.94-4.622-.219-.053-1.281 5.037.218.052 1.282-5.036Zm-8.459 4.23-4.788-2.029-.091.204 4.788 2.036.091-.211Zm.58-1.365-4.788-2.028-.09.203 4.788 2.029.09-.204Zm-16.587 21.465 1.508 4.976.211-.06-1.508-4.984-.211.068Zm12.742 1.304v-.218l-5.15.754v.218l5.15-.754Zm.203 1.471v-.219l-5.149.754v.219l5.149-.754Zm-1.176-5.534 1.161-5.067-.218-.053-1.154 5.074.211.046Zm1.448.331 1.161-5.066-.211-.053-1.161 5.074.211.045Zm-14.521-7.66-1.961 3.099.083.286 2.089-3.294-.211-.091Zm1.259.792-2.654 4.192.083.279 2.759-4.351-.188-.12Zm-4.735-5.142.09.203 4.765-2.081-.09-.203-4.765 2.081Zm5.451-.513-.09-.203-4.765 2.08.083.204 4.772-2.081Zm-9.16-2.262-.219-.068-1.433 4.969.211.06 1.441-4.961Zm-2.85 4.599 1.417-5.006-.211-.06-1.417 5.006.211.06Zm20.409-2.209-1.508-4.976-.211.061 1.508 4.983.211-.068Zm-3.136-4.523 1.508 4.976.211-.061-1.508-4.976-.211.061Zm-7.231-12.818-4.146 3.137.135.173 4.147-3.129-.136-.181Zm-3.257 4.321.136.18 4.154-3.136-.136-.173-4.154 3.129Zm-5.104-9.048 1.44 4.991.219-.06-1.448-4.999-.211.068Zm-1.425.407 1.44 4.999.211-.06-1.463-4.939h-.188Zm-5.278 4.893h.226l.302-5.194h-.226l-.302 5.194Zm2.006-5.089h-.219l-.301 5.195h.218l.302-5.195Zm1.824 38.218-3.181-3.31-.159.151 3.19 3.317.15-.158Zm-4.252-2.262-.143.226 3.227 3.356.151-.159-3.235-3.423Zm37.698-28.801-.174-.136-3.264 4.042.173.143 3.265-4.049Zm-1.327-1.07-3.272 4.041.173.143 3.272-4.049-.173-.135Zm.927-7.6h-.226l-.581 5.164h.219l.588-5.164Zm-1.704-.196-.58 5.172h.226l.58-5.165-.226-.007Zm-11.226 33.249-4.788-2.028-.083.204 4.788 2.028.083-.204Zm.58-1.372-4.787-2.028-.083.203 4.787 2.028.083-.203Zm-29.856-25.567-.143-.166-.174.151-.377.618.694-.603Zm2.631 5.934-4.599 1.802v.234l4.682-1.833-.083-.203Zm-.46-1.176-.083-.211-4.056 1.59v.242l4.139-1.621Zm-1.38 10.819.053-.219-2.812-.633v.226l2.759.626Zm.332-1.448.045-.218-3.136-.709v.226l3.091.701Zm-.339 17.454.06-.211-2.812-.716v.234l2.752.693Zm-2.752-2.261 3.121.799.053-.219-3.174-.807v.227Zm3.483 6.732-.068-.211-3.415 1.124v.241l3.483-1.154Zm-.467-1.409-.068-.212-2.948.973v.234l3.016-.995Zm42.922-43.579.196.105 1.606-2.804h-.294l-1.508 2.699Zm1.29.754.196.105 2.028-3.543h-.256l-1.968 3.438Zm-5.941-1.508-1.591-1.945h-.287l1.704 2.081.174-.136Zm.972-.799.174-.143-.815-1.003h-.294l.935 1.146Zm-7.147 3.408-1.644-4.524h-.234l1.667 4.629.211-.105Zm1.191-.43.211-.076-1.463-4.048h-.241l1.493 4.124Zm-10.782-1.666.219.052.633-2.51h-.226l-.626 2.458Zm1.44.369.212.053.753-2.88h-.233l-.732 2.827Zm-17.446-.799.219.06.588-2.088h-.234l-.573 2.028Zm2.352-2.028h-.233l-.687 2.427.212.068.708-2.495Zm39.5 57.79 2.126 1.146v-.256l-2.021-1.086-.105.196Zm.814-1.508-.105.197 1.417.753v-.248l-1.312-.702Zm1.297 10.518v-.294l-2.111 1.825.151.166 1.96-1.697Zm0-1.96v-.294l-3.076 2.661.143.166 2.933-2.533Zm-.241 8.082.083.211.158-.06v-.241l-.241.09Zm-.543-1.379.083.211.701-.279v-.242l-.784.31Zm-1.508 7.773-.045.218 2.307.521v-.234l-2.262-.505Zm2.262-1.018-1.93-.437-.053.218 1.983.453v-.234Zm-20.802-17.665 3.295 4.026.173-.143-3.294-4.019-.174.136Zm2.315 4.825-3.295-4.018-.166.135 3.287 4.026.174-.143Zm-6.167 2.639-1.508-4.207-.106.369 1.41 3.913.204-.075Zm1.394-.505-1.764-4.893-.211.075 1.764 4.893.211-.075Zm-3.015 5.662-.197-.113-2.586 4.524.196.113 2.587-4.524Zm-1.508-.844-1.591 2.85-.249.882 2.088-3.65-.248-.082Zm20.967.12-.211-.053-1.282 5.037.219.053 1.274-5.037Zm1.448.362-.219-.053-1.282 5.044.219.053 1.282-5.044Zm-8.414 4.252-4.788-2.028-.091.204 4.788 2.028.091-.204Zm.58-1.372-4.788-2.028-.09.204 4.788 2.035.09-.211Zm-9.228 1.727.95 3.151h.233l-.972-3.219-.211.068Zm-1.207.362-.218.06.822 2.729h.233l-.837-2.789Zm14.77-10.103-.173-.144-3.265 4.042.174.143 3.264-4.041Zm-1.327-1.078-3.272 4.041.174.143 3.272-4.041-.174-.143Zm.92-7.661h-.226l-.581 5.165h.219l.588-5.165Zm-1.704-.188-.58 5.164h.226l.58-5.172-.226.008Zm3.657-2.496 1.606-2.804h-.287l-1.508 2.691.189.113Zm3.061-2.804-1.968 3.43.196.113 2.028-3.543h-.256Zm-8.082 2.08.173-.143-1.591-1.937h-.286l1.704 2.08Zm1.146-.942.173-.143-.814-.995h-.294l.935 1.138Zm-7.148 3.408-1.643-4.524h-.234l1.666 4.622.211-.098Zm1.191-.422.211-.083-1.462-4.041h-.241l1.492 4.124Zm-10.48-2.873.129.415.422-1.666h-.226l-.325 1.251Zm1.139 1.568.211.053.754-2.872h-.234l-.731 2.819ZM97.843 271.3l.083.212.158-.068v-.234l-.241.09Zm.241-1.688-.754.309.083.203.701-.271-.03-.241Zm-2.315 8.293 2.315.52v-.226l-2.262-.513-.053.219Zm.332-1.448 1.983.445v-.226l-1.938-.482-.045.263Zm1.983 17.673-2.262-.565-.053.218 2.262.581.053-.234Zm-1.862-2.005-.053.218 1.915.483v-.226l-1.862-.475Zm1.862 8.587v-.241l-1.508.505.068.211 1.44-.475Zm0-1.568v-.234l-1.99.656.067.211 1.923-.633Zm-4.78 4.524-.189-.106-1.04 1.817h.256l.973-1.711Zm1.29.754-.19-.113-.618 1.085h.257l.55-.972Zm-12.185-.973 1.584 1.945h.294l-1.704-2.088-.174.143Zm1.146-.942 2.36 2.887h.287l-2.473-3.016-.174.129Zm-4.222 2.043-.211.075.279.754h.241l-.309-.829Zm-3.242-44.559.754.965-.754-1.003v.038Zm-4.682 1.681 1.772 4.886.203-.075-1.741-4.961-.234.15Zm1.402-.505 1.765 4.886.21-.076-1.764-4.885-.21.075Zm18.435 36.009-4.788-2.028-.083.204 4.788 2.028.083-.204Zm-.58 1.372-4.781-2.035-.09.211 4.787 2.028.083-.204Zm.58-14.641-1.418 5.006.211.06 1.418-5.006-.211-.06Zm1.643.467-.218-.06-1.41 4.998.21.061 1.418-4.999Zm-7.667.535-1.508-4.976-.212.061 1.508 4.983.212-.068Zm1.417-.429-1.508-4.977-.211.061 1.508 4.983.21-.067ZM71.77 271.572l-.189-.113-2.586 4.523.196.106 2.579-4.516Zm-1.29-.754-.188-.113-2.586 4.524.196.105 2.579-4.516Zm13.775 4.622-4.787-2.029-.083.204 4.788 2.036.082-.211Zm.581-1.365-4.788-2.028-.083.203 4.788 2.029.083-.204Zm-9.002 23.493 5.15-.754v-.218l-5.15.754v.218Zm.21 1.47 5.15-.754v-.218l-5.15.754v.218Zm3.77-6.333.22.045 1.16-5.066-.218-.053-1.161 5.074Zm2.61-4.742-1.162 5.074.219.045 1.161-5.066-.219-.053Zm-14.175-8.972-1.983.867.076.211 1.998-.875-.091-.203Zm.588 1.364-2.088.913.075.211 2.103-.92-.09-.204Zm6.786-4.523 1.508 4.983.218-.068-1.508-4.976-.218.061Zm-1.425.429 1.508 4.977.218-.061-1.508-4.976-.218.06Zm-11.385-9.643.136.174 4.154-3.129-.136-.181-4.154 3.136ZM68 264.847l-.136-.174-4.154 3.129.136.181L68 264.847Zm7.849 25.566-4.788-2.028-.09.204 4.787 2.028.09-.204Zm-4.298-3.197 4.788 2.029.09-.204-4.787-2.066-.09.241Zm24.519 22.242-.106.196.189-.151-.083-.045Zm.701-1.304-.106.196.55.294.182-.159-.626-.331Zm-8.542 5.443h.226l.31-2.789h-.22l-.316 2.789Zm-1.508-.256.219.068.309-2.767h-.219l-.31 2.699Zm5.572-8.022h-.257l-1.508 2.691.189.114 1.576-2.805Zm1.711 0h-.256l-1.968 3.43.196.113 2.028-3.543Zm-8.339 2.081.166-.143-1.583-1.938h-.294l1.711 2.081Zm1.146-.943.174-.143-.822-.995h-.287l.935 1.138Zm-7.449-1.138 1.078 3.016.415.482-1.251-3.468-.242-.03Z"/>
  <path stroke="#263238" stroke-width=".657" d="M141.881 225.679s-12.245-1.704-17.899 1.952c-5.655 3.657-33.597 51.413-33.597 51.413l-15.433-20.772-13.383 6.009s6.273 24.278 13.572 36.356c7.298 12.078 11.46 13.3 13.963 12.9 7.449-1.184 29.027-26.147 29.027-26.147l7.841 26.087-5.323 18.962h99.145l-12.025-20.055s15.69-72.38 11.694-80.048c-3.996-7.668-27.278-6.657-34.599-6.657h-20.96c-3.177.63-6.405.963-9.643.995a121.816 121.816 0 0 1-12.38-.995Z"/>
  <path fill="#263238" stroke="#263238" stroke-linecap="round" stroke-linejoin="round" stroke-width=".657" d="M118.139 287.39a32.592 32.592 0 0 1-3.204-18.555c1.455-10.156 7.743-21.276 7.743-21.276s-12.546 18.095-12.546 24.126c0 6.032 3.732 14.853 3.732 14.853l-3.257 9.296 7.532-8.444Z"/>
  <path fill="#CFCFCF" stroke="#263238" stroke-linecap="round" stroke-linejoin="round" stroke-width=".657" d="m152.263 215.674.332 10.645-8.98.332s-1.855 39.063 6.137 46.052c7.992 6.989 32.119-47.024 32.119-47.024l-8.294-1.667-2.661-21.623-18.653 13.285Z"/>
  <path fill="#263238" stroke="#263238" stroke-linecap="round" stroke-linejoin="round" stroke-width=".657" d="m171.873 206.611-19.203 18.095v-6.401l19.203-11.694Z"/>
  <path fill="#fff" d="M149.752 272.703s.965-6.288 5.798-14.506l-5.798 14.506Z"/>
  <path stroke="#263238" stroke-linecap="round" stroke-linejoin="round" stroke-width=".657" d="M149.752 272.703s.965-6.288 5.798-14.506"/>
  <path fill="#CFCFCF" stroke="#263238" stroke-linecap="round" stroke-linejoin="round" stroke-width=".657" d="m148.395 155.644-21.865 22.731a42.754 42.754 0 0 1 2.458 15.08c-.256 8.052 7.065 19.896 13.051 25.4 5.987 5.504 18.201-2.955 22.762-5.941a57.3 57.3 0 0 0 8.482-7.027 9.837 9.837 0 0 0 4.703-1.433 9.838 9.838 0 0 0 3.425-3.528s-31.772-33.95-33.016-45.282Z"/>
  <path stroke="#263238" stroke-linecap="round" stroke-linejoin="round" stroke-width=".657" d="M142.469 178.986a15.174 15.174 0 0 1 1.447 4.901c.068 2.103-3.619 11.958-3.091 12.613.528.656 2.179 2.828 3.468 2.549"/>
  <path stroke="#263238" stroke-linecap="round" stroke-linejoin="round" stroke-width=".329" d="M151.562 189.76a14.093 14.093 0 0 1 9.575-.113m-26.592.897a19.059 19.059 0 0 1 5.059-.709"/>
  <path fill="#263238" d="M139.709 173.415a5.494 5.494 0 0 0-4.523 1.839c-1.893 2.179-2.813 4.079-3.288 2.541-.475-1.538 1.637-4.365 2.383-4.938.746-.573 4.245-2.82 5.428.558Zm9.357-1.267a14.051 14.051 0 0 1 6.386 1.508c2.888 1.583 1.508-1.629-.52-2.548-2.028-.92-5.542-.83-5.866 1.04Z"/>
  <path fill="#92E3A9" stroke="#263238" stroke-linecap="round" stroke-linejoin="round" stroke-width=".657" d="M182.542 209.959c.136 2.262-1.033 4.146-2.594 4.237-1.56.09-2.94-1.659-3.076-3.906-.135-2.246.807-8.044 2.368-8.135 1.56-.09 3.174 5.549 3.302 7.804Z"/>
  <path fill="#263238" d="M138.812 186.473c.105 1.508-.468 2.729-1.274 2.782-.807.053-1.508-1.101-1.636-2.579-.128-1.477.467-2.729 1.274-2.782.807-.052 1.568 1.131 1.636 2.579Zm16.271-.58c.105 1.507-.468 2.721-1.267 2.782-.799.06-1.508-1.101-1.644-2.586-.135-1.486.475-2.722 1.274-2.775.8-.053 1.539 1.101 1.637 2.579Z"/>
  <path stroke="#263238" stroke-linecap="round" stroke-linejoin="round" stroke-width=".657" d="M144.188 203.339s3.838 1.229 9.047-3.227"/>
  <path fill="#CFCFCF" stroke="#263238" stroke-miterlimit="10" stroke-width=".657" d="m74.952 258.287-7.02-9.402c-.323-2.503-.949-7.675-1.055-11.166-.143-4.75.09-7.653-2.608-11.867-2.7-4.215-10.231-10.872-10.94-12.418-.709-1.545-2.76 2.812-1.47 5.64 1.289 2.827 2.465 3.694 2.465 3.694S40.46 215.877 40 217c-.46 1.124 6.454 20.991 9.62 26.231 1.32 2.186 4.977 5.111 6.74 7.645a23.511 23.511 0 0 1 2.21 3.973c1.643 6.989 3.558 14.679 4.524 14.958 2.194.641 11.505.792 11.86-11.52Z"/>
  <path fill="#263238" stroke="#263238" stroke-miterlimit="10" stroke-width=".657" d="M55.244 236.687a1.001 1.001 0 0 1-1.05-.359.99.99 0 0 1-.172-.35l-11.03-40.782a.995.995 0 0 1 .679-1.183 1.004 1.004 0 0 1 1.221.701l11.06 40.766a1.002 1.002 0 0 1-.708 1.207Z"/>
  <path fill="#CFCFCF" stroke="#263238" stroke-miterlimit="10" stroke-width=".657" d="M47.29 210.743s-10.646 5.624-9.99 6.725c.656 1.101 2.6 5.029 3.49 4.938.89-.09 7.352-5.368 7.819-6.031.467-.664-1.32-5.632-1.32-5.632Zm1.9 6.906s-8.844 6.522-8.558 7.472c.287.95 4.622 12.191 5.376 13.103.754.913 7.675-2.261 7.675-2.261l-4.493-18.314Z"/>
  <path stroke="#263238" stroke-miterlimit="10" stroke-width=".657" d="M50.532 223.711s-8.467 6.65-7.91 6.861m9.508.347-7.117 4.169m9.289-12.32 3.905 3.815s-5.187 11.076-.218 17.19"/>
  <path fill="#92E3A9" d="M208.403 228.039s9.477-1.237 13.571 6.597c4.094 7.833 29.675 77.069 30.09 83.689.415 6.619-16.904 8.24-22.671 5.36-5.768-2.88-21.865-37.094-23.494-41.633"/>
  <path fill="#fff" d="m211.415 275.981-1.405 4.994.217.061 1.405-4.994-.217-.061Zm3.275-14.082-1.44-4.999-.218.068 1.447 4.991.211-.06Zm-.704 14.578-1.42 5.005.218.061 1.42-5.004-.218-.062Zm2.182-3.277-3.295-4.026-.173.144 3.294 4.018.174-.136Zm7.111 5.395-4.768 2.08.09.207 4.768-2.08-.09-.207Zm-.446 5.998-.188-.121-2.782 4.396.188.12 2.782-4.395Zm-11.227-27.218 1.44 4.999.219-.068-1.447-4.991-.212.06Zm6.998 30.693.188.121 2.782-4.388-.188-.121-2.782 4.388Zm-1.29-15.81-3.287-4.026-.173.143 3.287 4.019.173-.136Zm4.986-9.384L218.142 266l.136.18 4.158-3.125-.136-.181Zm-1.043-22.139 1.501 4.984.211-.068-1.493-4.976-.219.06Zm.28 21.149-.136-.181-4.154 3.129.135.181 4.155-3.129Zm-2.745-27.158 1.561-2.465c-.053-.053-.098-.114-.151-.174l-1.598 2.518.188.121Zm-4.562 9.387.181.136 3.159-4.132-.173-.136-3.167 4.132Zm2.835 6.778 4.788 2.028.091-.204-4.788-2.028-.091.204Zm5.617-10.586 1.501 4.984.211-.068-1.493-4.976-.219.06Zm-.317 33.295 2.586-4.516-.196-.106-2.578 4.509.188.113Zm-5.784-21.526-.085.201 4.789 2.032.086-.201-4.79-2.032Zm6.09 25.188-4.768 2.08.09.207 4.769-2.079-.091-.208Zm11.825 46.529-.082.203 2.405 1.026h.588l-2.911-1.229Zm1.041-16.172-1.463-4.049-.301-.837-.211.075.278.762 1.486 4.124.211-.075Zm-5.006 4.041 3.295 4.026.165-.144-3.287-4.026-.173.144Zm3.604-3.537-1.636-4.553-.128-.332-.204.068.09.264 1.674 4.629.204-.076Zm1.462-11.769-5.149.724.03.219 5.149-.724-.03-.219Zm14.959 22.227 1.395-1.206-.046-.249-1.508 1.289.159.166Zm-37.501-75.373.173.136 3.167-4.132-.181-.136-3.159 4.132Zm-5.936 27.343-.213.076 1.767 4.894.212-.077-1.766-4.893Zm42.457 46.907 1.99-1.719a2.514 2.514 0 0 1-.06-.242l-2.073 1.795.143.166Zm-14.431-2.858-3.295-4.018-.173.135 3.295 4.026.173-.143Zm-27.007-57.418-.303 5.193.226.013.302-5.193-.225-.013Zm23.622 21.786-1.493-4.976-.219.06 1.501 4.984.211-.068Zm-4.303-19.708-.206.074 1.766 4.894.206-.074-1.766-4.894Zm-.756-9.176-.717 2.827.219.053.731-2.88.551-2.164-.219-.053-.565 2.217Zm-1.53 0-.626 2.458.219.053.633-2.511.648-2.526-.218-.052-.656 2.578Zm3.453 24.398 1.5 4.976.211-.06-1.493-4.984-.218.068Zm-2.576-14.696-.206.074 1.767 4.894.205-.075-1.766-4.893Zm-17.522 10.246-.213.077 1.766 4.893.213-.077-1.766-4.893Zm11.525-34.552 1.267-1.998-.136-.211-1.319 2.096.188.113Zm5.933 49.957 4.788 2.028.083-.203-4.788-2.028-.083.203Zm-13.156-53.772-.196-.113-2.586 4.509.196.113 2.586-4.509Zm35.24 72.651-.098-.279-1.697 2.971.189.105 1.606-2.797Zm-4.863 4.75-.219-.023-.588 5.165.226.023.581-5.165Zm-2.848-14.27-.086.201 4.79 2.032.085-.201-4.789-2.032Zm6.407 8.774.656-1.139-.091-.286-.821 1.425-1.546 2.699.196.105 1.606-2.804Zm-3.145 14.234-.173-.143-3.272 4.041.173.144 3.272-4.042Zm1.29-22.709-3.981-1.689-.083.204 4.162 1.764-.098-.279Zm-2.45 21.774-.174-.143-3.264 4.041.173.144 3.265-4.042Zm-5.383-30.595-.219-.053-1.161 5.067.218.053 1.162-5.067Zm3.06 19.384.174-.143-1.591-1.945-1.704-2.081-.174.143 1.591 1.938 1.704 2.088Zm-28.801-68.859.196.114 2.586-4.517-.196-.105-2.586 4.508Zm14.711 76.469-.205.074 1.766 4.893.206-.074-1.767-4.893Zm19.685 9.324-.219-.06-.4 1.568.249-.068.37-1.44Zm-18.268-9.847-.206.074 1.765 4.894.206-.075-1.765-4.893Zm6.943-42.236 1.99.844c0-.098-.075-.196-.105-.286l-1.802-.754-.083.196Zm12.765 52.43-.219-.053-.181.701.256-.09.144-.558Zm-25.808-15.366-3.95-1.673.165.309 3.695 1.568.09-.204Zm-13.504-67.75 2.571 2.676.166-.15-2.722-2.828-.015.302Zm22.672 18.351 1.764 2.149-.249-.649-1.319-1.643-.196.143Zm-21.172-14.642.159-.158-1.734-1.81-.015.309 1.59 1.659Zm28.614 34.72 1.5 4.983.211-.067-1.493-4.976-.218.06Zm-16.029 27.956-4.788-2.035-.091.203 4.788 2.036.091-.204Zm-5.549-13.503-.181-.136-3.159 4.124.173.136 3.167-4.124Zm7.999 6.009-1.493-4.983-.219.067 1.501 4.977.211-.061Zm-1.425.43-1.493-4.983-.219.067 1.501 4.976.211-.06Zm-5.399-5.541-.173-.129-3.167 4.124.181.136 3.159-4.131Zm-7.599-41.091.218.06.702-2.488.708-2.511-.211-.067-.731 2.578-.686 2.428Zm-.86-2.428-.573 2.028.218.061.588-2.089.822-2.918-.211-.06-.844 2.978Zm3.717 35.067-.196-.113-2.586 4.516.196.105 2.586-4.508Zm1.289.738-.196-.113-2.586 4.517.196.105 2.586-4.509Zm11.935-16.172-2.586 4.509.188.113 2.586-4.516-.188-.106Zm9.357 16.173-1.161 5.066.218.053 1.161-5.067-.218-.052Zm1.583-12.916-3.083-1.304-.083.203 3.272 1.388c-.038-.083-.068-.189-.106-.287Zm-1.568 22.129-.03-.219-5.15.724.03.219 5.15-.724Zm2.744 5.443-.173.144 2.359 2.88.935 1.146.174-.144-.822-1.002-2.473-3.024Zm-11.234 3.024.551-2.156-.219-.053-.565 2.209-.717 2.827.219.053.731-2.88Zm-1.443-16.946-.085.201 4.789 2.032.085-.201-4.789-2.032Zm-.094 16.946.648-2.526-.218-.053-.656 2.579-.626 2.458.219.06.633-2.518Zm15.75 10.495.58-5.165-.219-.023-.588 5.165.227.023Z"/>
  <path stroke="#263238" stroke-width=".657" d="M208.403 228.039s9.477-1.237 13.571 6.597c4.094 7.833 29.675 77.069 30.09 83.689.415 6.619-16.904 8.24-22.671 5.36-5.768-2.88-21.865-37.094-23.494-41.633"/>
  <path fill="#CFCFCF" stroke="#263238" stroke-linecap="round" stroke-linejoin="round" stroke-width=".657" d="M151.109 322.426s-19.369-2.473-22.671-2.066c-3.303.407-18.133 10.307-18.133 10.307h42.011l-1.207-8.241Z"/>
  <path fill="#92E3A9" d="m231.066 309.232-79.919 13.194 1.169 8.241h98.542a72.262 72.262 0 0 0 1.236-12.365c0-6.182-3.709-13.187-3.709-13.187"/>
  <path fill="#fff" d="m237.686 322.841 1.5 4.976.212-.06-1.493-4.984-.219.068Zm5.473-14.084-3.272 4.041.174.143 3.272-4.041-.174-.143Zm-4.425 3.106.173.144 3.265-4.041-.173-.144-3.265 4.041Zm-10.397 7.2 1.5 4.984.211-.068-1.492-4.976-.219.06Zm12.486 8.264-1.501-4.984-.211.068 1.501 4.976.211-.06Zm-9.35-3.77-1.493-4.984-.218.068 1.5 4.976.211-.06Zm13.758-9.926-1.281 5.042.219.056 1.281-5.043-.219-.055Zm-.918 17.036h.234l1.093-3.861-.218-.06-1.109 3.921Zm-18.532-.852-.083.203 1.523.649h.573l-2.013-.852Zm20.87-15.855-1.281 5.042.219.056 1.281-5.042-.219-.056Zm-38.418.653-.212.076 1.765 4.894.213-.077-1.766-4.893Zm25.306 1.85 4.78 2.028.091-.204-4.788-2.036-.083.212Zm1.584 14.016-.045.189h.227l.037-.144-.219-.045Zm-.919-15.576-.086.202 4.789 2.032.086-.202-4.789-2.032Zm-21.791-1.004 3.295 4.026.173-.143-3.294-4.026-.174.143Zm4.615 2.94-3.295-4.018-.166.136 3.287 4.026.174-.144Zm32.269-8.286.46-.399-.091-.219-.512.452.143.166Zm-37.028 12.104-1.42 5.005.217.062 1.42-5.005-.217-.062Zm37.985-1.398 1.817.415v-.226l-1.779-.407-.038.218Zm-27.896 9.802-1.018 1.606h.264l.942-1.493-.188-.113Zm29.661-8.105-2.043-.46-.053.211 2.081.475c.007-.075.015-.151.015-.226Zm-1.749-11.278.053-.046-.083-.227-.114.106.144.167Zm-27.888 12.16-4.768 2.08.09.207 4.769-2.079-.091-.208Zm-1.094 6.545-.189-.121-1.523 2.405h.264l1.448-2.284Zm-7.574-7.281-1.42 5.005.218.061 1.42-5.004-.218-.062Zm9.278 2.08-4.768 2.08.091.208 4.768-2.08-.091-.208Zm2.963-8.77-.189-.113-2.586 4.516.189.113 2.586-4.516Zm-4.065 3.664.189.105 2.586-4.508-.196-.113-2.579 4.516Zm-52.99 3.766-4.769 2.08.09.207 4.769-2.079-.09-.208Zm-9.844 7.89-.196-.106-.596 1.041h.257l.535-.935Zm-1.478-4.004 1.297-4.584-.241.038-1.267 4.486.211.06Zm2.768 4.743-.197-.106-.173.302h.256l.114-.196Zm25.068-13.353.09-.203-.286-.113-.407.06.603.256Zm5.414 13.549h.233l1.086-3.861-.211-.06-1.108 3.921Zm1.953-15.117-.883 3.483.212.06.912-3.581-.241.038Zm-24.979 12.833-.189-.121-1.523 2.405h.264l1.448-2.284Zm1.259.791-.188-.113-1.026 1.606h.264l.95-1.493Zm44.573 1.191-.173.302h.256l.113-.196-.196-.106Zm33.22-3.211-.996 3.513h.234l.973-3.453-.211-.06Zm-40.021-12.025-.213.077 1.767 4.893.212-.077-1.766-4.893Zm-13.472 12.025-.988 3.513h.226l.98-3.453-.218-.06Zm-21.065 2.661-.091.203 1.531.649h.565l-2.005-.852Zm40.246-.083-.196-.106-.596 1.041h.256l.536-.935Zm-53.466-8.978-1.405 4.994.217.061 1.405-4.994-.217-.061Zm42.887 3.783-.211-.083-1.9 4.84.204.083 1.907-4.84Zm-32.47-1.335-4.769 2.079.091.208 4.768-2.08-.09-.207Zm33.85 1.87-.211-.075-1.9 4.84.211.076 1.9-4.841Zm-6.906-4.358 2.307.521 2.76.618.052-.219-2.812-.633-2.262-.505-.045.218Zm5.398-.309.053-.218-3.144-.709-1.93-.437-.053.218 1.983.445 3.091.701Zm-11.158-1.681.746-2.948-.241.038-.724 2.857.219.053Zm-5.753-.437-2.443-1.041-.407.068 2.76 1.176.09-.203Zm-7.155 5.33.219-.06-1.501-4.984-.211.068 1.493 4.976Zm-1.206.362-1.501-4.976-.211.06 1.5 4.984.212-.068Zm7.637-1.138 1.501 4.976.211-.06-1.501-4.984-.211.068Zm-2.571 7.638-.045.189h.234l.031-.144-.22-.045Zm5.707-3.152-1.5-4.984-.211.068 1.493 4.976.218-.06Z"/>
  <path stroke="#263238" stroke-width=".657" d="m231.066 309.232-79.919 13.194 1.169 8.241h98.542a72.262 72.262 0 0 0 1.236-12.365c0-6.182-3.709-13.187-3.709-13.187"/>
  <path fill="#263238" stroke="#263238" stroke-linecap="round" stroke-linejoin="round" stroke-width=".657" d="M248.641 329.332H149.3l-3.257-54.646a3.724 3.724 0 0 1 2.102-3.983 3.71 3.71 0 0 1 1.562-.345h98.512a3.708 3.708 0 0 1 3.664 4.328l-3.242 54.646Z"/>
  <path stroke="#fff" stroke-linecap="round" stroke-linejoin="round" stroke-width=".657" d="M154.178 271.67h93.325a3.616 3.616 0 0 1 3.611 4.192m-104.332-.837a3.63 3.63 0 0 1 3.649-3.355"/>
  <path fill="#fff" stroke="#263238" stroke-linecap="round" stroke-linejoin="round" stroke-width=".657" d="M249.056 324.009H148.871v5.323h100.185v-5.323Zm-43.345-23.945c0 2.352-3.182 4.26-7.102 4.26-3.921 0-7.095-1.908-7.095-4.26 0-2.353 3.182-4.26 7.095-4.26s7.102 1.907 7.102 4.26Z"/>
  <path fill="#263238" stroke="#263238" stroke-linecap="round" stroke-linejoin="round" stroke-width=".657" d="M50.486 323.844a17.097 17.097 0 0 1-6.1-1.455 2.115 2.115 0 0 1-1.023-2.737 2.11 2.11 0 0 1 2.69-1.139c1.945.83 4.44 1.342 5.112 1.056 1.221-1.38 3.114-9.711.67-13.685a1.938 1.938 0 0 0-1.394-1.093c-1.387-.188-3.438 1.237-4.162 1.915a2.113 2.113 0 0 1-2.928-.152 2.108 2.108 0 0 1 .048-2.931c.384-.362 3.883-3.506 7.6-3.016a6.097 6.097 0 0 1 4.426 3.061c3.596 5.851 1.138 17.009-1.629 19.196a5.237 5.237 0 0 1-3.31.98Z"/>
  <path fill="#263238" stroke="#263238" stroke-linecap="round" stroke-linejoin="round" stroke-width=".657" d="M46.754 298.888h-23.26v30.874h23.26v-30.874Z"/>
  <path stroke="#263238" stroke-linecap="round" stroke-linejoin="round" stroke-width=".657" d="M25.606 297.199s0-2.571 4.712-5.142 7.283-6.424 4.712-13.707c-2.57-7.283-2.14-12.425 3.016-16.715m-11.37 8.158c.242-3.129 1.636-5.776 4.524-8.158m-3.023 16.715a30.014 30.014 0 0 1-1.138-3.981m17.702 6.492a18.87 18.87 0 0 0-.716-2.511l-.392-1.161m-9.033 20.01s0-2.571 4.713-5.142c3.091-1.689 5.277-3.928 5.662-7.321"/>
  <path fill="#263238" d="M352.891 329.234H1.97V337h350.92v-7.766Z"/>
</svg>
