<svg width="274" height="210" viewBox="0 0 274 210" fill="none" xmlns="http://www.w3.org/2000/svg">
<path d="M141.754 209.544C214.791 209.544 274 206.314 274 202.329C274 198.345 214.791 195.115 141.754 195.115C68.7161 195.115 9.50745 198.345 9.50745 202.329C9.50745 206.314 68.7161 209.544 141.754 209.544Z" fill="#92E3A9"/>
<path opacity="0.3" d="M141.754 209.544C214.791 209.544 274 206.314 274 202.329C274 198.345 214.791 195.115 141.754 195.115C68.7161 195.115 9.50745 198.345 9.50745 202.329C9.50745 206.314 68.7161 209.544 141.754 209.544Z" fill="white"/>
<path d="M219.908 93.5848C219.868 93.5848 220.368 91.1 220.421 90.9202C220.994 89.1482 223.152 86.0572 225.237 86.0639C225.584 86.0738 225.925 86.1565 226.237 86.3068C226.55 86.457 226.827 86.6713 227.052 86.9359C227.276 87.2004 227.442 87.5092 227.539 87.8421C227.636 88.1751 227.662 88.5247 227.615 88.8684C227.462 90.3406 226.143 91.5863 224.951 92.3124C223.552 93.1851 219.908 93.5848 219.908 93.5848Z" fill="#92E3A9"/>
<path d="M215.865 76.8574C217.83 77.5636 218.809 81.2008 218.743 83.0661C218.743 83.2259 218.37 85.7307 218.336 85.7307H218.296C218.449 86.3036 218.616 86.9231 218.783 87.596C219.076 88.8483 219.395 90.2606 219.642 91.8327C219.928 93.5191 220.115 95.2207 220.201 96.9289C220.308 98.8405 220.243 100.758 220.008 102.658C220.005 102.68 220.005 102.702 220.008 102.724C220.268 102.172 221.034 100.639 221.107 100.526C222.133 98.9673 225.024 96.5292 227.043 97.1154C227.374 97.2174 227.679 97.3877 227.94 97.6154C228.201 97.843 228.411 98.1229 228.557 98.437C228.702 98.751 228.781 99.0921 228.786 99.4382C228.791 99.7843 228.724 100.128 228.588 100.446C228.056 101.819 226.457 102.678 225.118 103.058C223.606 103.491 220.235 102.978 219.968 102.938C219.684 104.864 219.27 106.769 218.729 108.64C218.418 109.733 218.081 110.825 217.717 111.918C217.95 111.445 218.17 111.025 218.203 110.965C219.229 109.406 222.12 106.968 224.138 107.547C224.47 107.649 224.776 107.818 225.038 108.046C225.299 108.273 225.509 108.553 225.655 108.868C225.801 109.182 225.879 109.523 225.884 109.87C225.889 110.216 225.821 110.56 225.684 110.878C225.151 112.257 223.552 113.11 222.213 113.496C220.874 113.883 217.97 113.496 217.21 113.396C217.071 113.809 216.931 114.229 216.784 114.642C216.118 116.641 215.398 118.639 214.786 120.598C214.566 121.264 214.373 121.983 214.179 122.676C214.393 122.256 214.572 121.903 214.606 121.857C215.625 120.298 218.523 117.86 220.535 118.439C220.865 118.541 221.171 118.712 221.432 118.939C221.693 119.167 221.903 119.446 222.05 119.76C222.196 120.074 222.275 120.415 222.281 120.761C222.287 121.107 222.221 121.451 222.087 121.77C221.554 123.142 219.948 124.002 218.609 124.381C217.27 124.761 214.652 124.428 213.746 124.301C213.566 125.021 213.393 125.734 213.253 126.433C213.167 126.913 213.054 127.372 212.994 127.859C212.934 128.345 212.86 128.818 212.794 129.284C212.7 130.197 212.594 131.143 212.527 132.036C212.474 132.655 212.434 133.248 212.394 133.841C212.601 133.175 213.06 131.802 213.094 131.689C213.833 130.225 214.934 128.973 216.291 128.052C216.365 127.885 216.457 127.726 216.564 127.579C216.753 127.288 217.001 127.04 217.292 126.852C217.582 126.663 217.909 126.538 218.252 126.484C218.594 126.43 218.944 126.448 219.279 126.538C219.614 126.628 219.926 126.788 220.195 127.006C221.78 128.338 221.381 132.122 220.654 133.841C220.614 133.941 220.022 134.987 219.642 135.64C219.928 135.293 220.195 134.973 220.495 134.587C221.074 133.881 221.674 133.188 222.313 132.442L223.292 131.383C223.612 131.016 223.999 130.677 224.352 130.324C225.184 129.517 226.07 128.738 226.983 127.972C226.357 127.466 224.178 125.62 223.552 124.368C222.926 123.116 222.48 121.364 223.133 120.045C223.275 119.728 223.483 119.445 223.743 119.214C224.003 118.983 224.308 118.809 224.639 118.704C224.971 118.599 225.32 118.565 225.666 118.604C226.011 118.644 226.344 118.755 226.643 118.932C228.409 120.038 228.588 123.802 228.129 125.594C228.129 125.707 227.622 126.966 227.349 127.652C227.902 127.199 228.449 126.74 229.021 126.32C230.674 125.041 232.386 123.802 234.084 122.556L235.636 121.404C235.417 121.224 232.779 119.092 232.072 117.693C231.453 116.447 231 114.689 231.653 113.363C231.796 113.047 232.005 112.764 232.264 112.534C232.524 112.304 232.83 112.13 233.161 112.025C233.492 111.921 233.841 111.886 234.186 111.925C234.531 111.964 234.864 112.075 235.163 112.251C236.929 113.363 237.109 117.127 236.649 118.912C236.616 119.052 235.93 120.864 235.73 121.317C236.869 120.464 237.995 119.612 239.06 118.726C240.52 117.534 241.9 116.248 243.191 114.875C243.091 114.795 240.326 112.584 239.607 111.145C238.981 109.899 238.534 108.14 239.187 106.821C239.329 106.505 239.536 106.222 239.795 105.991C240.054 105.76 240.359 105.586 240.69 105.481C241.021 105.376 241.37 105.342 241.715 105.381C242.06 105.421 242.392 105.532 242.691 105.709C244.463 106.815 244.643 110.579 244.183 112.37C244.15 112.484 243.63 113.869 243.364 114.522L243.47 114.582C244.734 113.167 245.869 111.642 246.861 110.026C247.414 109.146 247.9 108.274 248.353 107.408C247.794 107.048 245.269 105.409 244.476 104.157C243.684 102.904 243.084 101.292 243.584 99.9066C243.691 99.5805 243.866 99.2805 244.096 99.0256C244.326 98.7707 244.607 98.5665 244.92 98.4261C245.233 98.2857 245.573 98.2121 245.916 98.2101C246.259 98.2081 246.6 98.2777 246.915 98.4144C248.8 99.3204 249.386 103.044 249.126 104.89C249.126 104.989 248.86 105.995 248.667 106.728C248.86 106.335 249.073 105.935 249.253 105.556C249.919 104.13 250.485 102.784 250.951 101.559C251.218 100.893 251.438 100.226 251.618 99.6735C251.251 99.0073 249.826 96.4426 249.686 95.0103C249.546 93.5781 249.772 91.8194 250.858 90.8202C251.106 90.5772 251.402 90.3892 251.727 90.2682C252.052 90.1472 252.399 90.0961 252.745 90.1181C253.092 90.1401 253.429 90.2347 253.737 90.3959C254.044 90.557 254.314 90.781 254.529 91.0533C255.781 92.7254 254.589 96.296 253.51 97.8215C253.416 97.9481 251.718 99.82 251.698 99.82V99.7801C251.511 100.346 251.311 100.952 251.071 101.605C250.632 102.811 250.112 104.177 249.459 105.602C248.764 107.165 247.978 108.686 247.108 110.159C246.138 111.809 245.023 113.369 243.777 114.822L243.73 114.875C244.25 114.549 245.729 113.703 245.855 113.65C247.574 112.917 251.318 112.497 252.69 114.076C252.91 114.344 253.071 114.655 253.163 114.989C253.256 115.323 253.276 115.673 253.225 116.016C253.174 116.359 253.051 116.687 252.864 116.979C252.678 117.272 252.433 117.522 252.144 117.713C250.938 118.566 249.126 118.379 247.801 117.973C246.302 117.5 243.804 115.215 243.57 115.035C242.271 116.484 240.876 117.844 239.394 119.105C238.528 119.852 237.642 120.571 236.729 121.277C237.189 121.017 237.602 120.784 237.662 120.757C239.374 120.025 243.117 119.605 244.49 121.184C244.711 121.451 244.873 121.762 244.965 122.097C245.058 122.431 245.079 122.781 245.028 123.124C244.976 123.467 244.853 123.796 244.666 124.088C244.479 124.38 244.233 124.63 243.943 124.821C242.744 125.674 240.932 125.487 239.607 125.081C238.281 124.675 236.063 122.756 235.49 122.243L234.444 123.049C232.765 124.335 231.113 125.607 229.481 126.906C228.915 127.366 228.375 127.839 227.829 128.305C228.242 128.072 228.582 127.879 228.642 127.859C230.354 127.119 234.098 126.706 235.47 128.278C235.692 128.546 235.855 128.857 235.948 129.191C236.041 129.526 236.063 129.876 236.011 130.219C235.96 130.563 235.836 130.891 235.649 131.184C235.461 131.476 235.214 131.725 234.924 131.916C233.718 132.768 231.913 132.582 230.587 132.182C229.261 131.782 227.256 130.037 226.59 129.431C226.05 129.931 225.504 130.423 225.004 130.936C224.665 131.289 224.338 131.603 224.005 131.982C223.672 132.362 223.339 132.702 223.046 133.061C222.466 133.768 221.86 134.5 221.307 135.207C220.921 135.693 220.561 136.166 220.201 136.639C220.754 136.179 221.874 135.306 221.973 135.233C223.552 134.247 227.189 133.268 228.788 134.614C229.046 134.846 229.253 135.13 229.394 135.447C229.536 135.765 229.609 136.108 229.609 136.456C229.609 136.803 229.536 137.146 229.394 137.464C229.253 137.781 229.046 138.065 228.788 138.298C227.729 139.317 225.917 139.43 224.545 139.217C223.026 138.977 220.281 137.218 219.942 136.965C219.342 137.751 218.769 138.524 218.236 139.263C216.391 141.815 214.952 144.007 213.966 145.559L213.866 145.712L212.587 145.092C212.654 144.992 212.72 144.899 212.787 144.793C213.82 143.247 215.325 141.062 217.244 138.524C217.85 137.725 218.509 136.879 219.196 136.013C218.481 135.236 217.814 134.417 217.197 133.561C215.725 134.134 212.667 134.161 212.274 134.161C212.214 135.147 212.161 136.106 212.121 137.012C211.988 140.163 212.001 142.787 212.034 144.619V144.839L210.629 144.173C210.629 142.354 210.702 139.883 210.889 136.972C210.948 135.966 211.035 134.893 211.135 133.801C210.742 133.701 207.564 132.882 206.365 131.922C205.279 131.056 204.134 129.644 204.174 128.172C204.17 127.825 204.24 127.48 204.378 127.162C204.517 126.844 204.721 126.558 204.978 126.324C205.234 126.09 205.537 125.913 205.867 125.804C206.197 125.696 206.546 125.658 206.892 125.694C208.963 125.96 210.695 129.304 211.042 131.136C211.042 131.243 211.148 132.469 211.188 133.201C211.235 132.748 211.268 132.315 211.315 131.869C211.408 130.956 211.528 130.044 211.655 129.064C211.728 128.598 211.808 128.125 211.881 127.646C211.954 127.166 212.081 126.673 212.181 126.18C212.434 125.048 212.74 123.908 213.08 122.769C212.281 122.683 209.45 122.35 208.231 121.657C207.011 120.964 205.679 119.738 205.499 118.279C205.442 117.936 205.459 117.585 205.547 117.249C205.636 116.913 205.795 116.599 206.013 116.329C206.231 116.058 206.504 115.837 206.814 115.68C207.124 115.522 207.464 115.432 207.811 115.415C209.896 115.362 212.121 118.406 212.734 120.165C212.774 120.278 213.074 121.59 213.22 122.316C213.433 121.65 213.633 120.944 213.886 120.265C214.552 118.266 215.305 116.308 216.038 114.329C216.264 113.723 216.478 113.117 216.704 112.517C216.418 112.517 213.04 112.164 211.681 111.385C210.476 110.718 209.13 109.466 208.943 108.007C208.889 107.664 208.907 107.314 208.996 106.979C209.085 106.644 209.244 106.331 209.462 106.061C209.68 105.791 209.952 105.57 210.261 105.411C210.57 105.253 210.908 105.162 211.255 105.143C213.347 105.089 215.572 108.134 216.185 109.892C216.231 110.026 216.657 111.891 216.744 112.404C217.224 111.071 217.697 109.739 218.076 108.407C218.64 106.608 219.085 104.775 219.409 102.918C219.275 102.918 215.745 102.585 214.359 101.785C213.147 101.119 211.801 99.8667 211.621 98.4078C211.567 98.0651 211.585 97.7148 211.674 97.3795C211.763 97.0442 211.922 96.7314 212.14 96.4614C212.358 96.1914 212.63 95.9701 212.939 95.812C213.248 95.6538 213.586 95.5623 213.933 95.5433C216.018 95.4966 218.243 98.5343 218.856 100.293C218.896 100.413 219.222 101.852 219.362 102.538H219.482C219.757 100.662 219.864 98.7644 219.802 96.8689C219.802 95.8231 219.702 94.8305 219.602 93.8579C218.936 93.8579 215.911 93.8579 214.579 93.285C213.247 92.7121 211.828 91.6595 211.481 90.2273C211.389 89.8918 211.368 89.5406 211.421 89.1966C211.474 88.8526 211.599 88.5236 211.787 88.2312C211.976 87.9388 212.224 87.6895 212.516 87.4997C212.808 87.3098 213.136 87.1837 213.48 87.1296C215.552 86.8499 218.096 89.6277 218.902 91.3131C218.942 91.4064 219.289 92.3857 219.522 93.0985C219.475 92.6654 219.429 92.2125 219.369 91.7994C219.162 90.234 218.869 88.8084 218.603 87.556C218.443 86.8432 218.29 86.2237 218.136 85.6041C217.47 85.2711 214.859 83.8988 213.96 82.7863C213.06 81.6738 212.274 80.0817 212.627 78.6494C212.703 78.308 212.851 77.9867 213.06 77.7066C213.27 77.4265 213.537 77.1941 213.843 77.0247C214.149 76.8553 214.487 76.7528 214.836 76.724C215.184 76.6952 215.535 76.7406 215.865 76.8574Z" fill="#92E3A9"/>
<path d="M253.622 109.053C251.99 108.986 248.726 107.314 248.726 107.308C248.726 107.301 250.478 105.496 250.605 105.396C252.064 104.23 255.568 102.844 257.306 103.997C257.59 104.197 257.828 104.455 258.006 104.753C258.183 105.052 258.296 105.384 258.337 105.729C258.378 106.074 258.345 106.423 258.243 106.755C258.14 107.087 257.968 107.393 257.739 107.654C256.807 108.773 255.015 109.106 253.622 109.053Z" fill="#92E3A9"/>
<g opacity="0.5">
<path d="M219.908 93.5849C219.868 93.5849 220.368 91.1002 220.421 90.9203C220.994 89.1483 223.152 86.0573 225.237 86.064C225.584 86.0739 225.925 86.1566 226.237 86.3069C226.55 86.4571 226.827 86.6715 227.052 86.936C227.276 87.2005 227.442 87.5093 227.539 87.8422C227.636 88.1752 227.662 88.5249 227.616 88.8685C227.462 90.3407 226.143 91.5864 224.951 92.3126C223.552 93.1852 219.908 93.5849 219.908 93.5849Z" fill="white"/>
<path d="M215.864 76.8576C217.83 77.5637 218.809 81.2009 218.742 83.0662C218.742 83.2261 218.369 85.7308 218.336 85.7308H218.296C218.449 86.3037 218.616 86.9233 218.782 87.5961C219.075 88.8485 219.395 90.2607 219.642 91.8329C219.927 93.5192 220.114 95.2208 220.201 96.929C220.307 98.8406 220.243 100.758 220.008 102.658C220.004 102.68 220.004 102.703 220.008 102.725C220.268 102.172 221.034 100.64 221.107 100.526C222.133 98.9675 225.024 96.5293 227.043 97.1155C227.373 97.2175 227.679 97.3878 227.94 97.6155C228.201 97.8432 228.411 98.1231 228.556 98.4371C228.702 98.7511 228.78 99.0922 228.786 99.4383C228.791 99.7845 228.724 100.128 228.588 100.446C228.055 101.819 226.456 102.678 225.117 103.058C223.605 103.491 220.234 102.978 219.968 102.938C219.684 104.864 219.27 106.769 218.729 108.64C218.418 109.733 218.08 110.825 217.716 111.918C217.949 111.445 218.169 111.025 218.203 110.965C219.229 109.406 222.12 106.968 224.138 107.548C224.47 107.649 224.776 107.819 225.037 108.046C225.299 108.273 225.509 108.553 225.655 108.868C225.801 109.182 225.879 109.524 225.884 109.87C225.889 110.216 225.82 110.56 225.684 110.878C225.151 112.257 223.552 113.11 222.213 113.496C220.874 113.883 217.969 113.496 217.21 113.397C217.07 113.81 216.93 114.229 216.784 114.642C216.118 116.641 215.398 118.639 214.785 120.598C214.565 121.264 214.372 121.983 214.179 122.676C214.392 122.256 214.572 121.903 214.605 121.857C215.625 120.298 218.522 117.86 220.534 118.439C220.865 118.542 221.171 118.712 221.432 118.939C221.693 119.167 221.903 119.447 222.049 119.76C222.195 120.074 222.274 120.415 222.281 120.761C222.287 121.108 222.221 121.451 222.086 121.77C221.553 123.142 219.948 124.002 218.609 124.382C217.27 124.761 214.652 124.428 213.746 124.302C213.566 125.021 213.393 125.734 213.253 126.433C213.166 126.913 213.053 127.373 212.993 127.859C212.933 128.345 212.86 128.818 212.793 129.284C212.7 130.197 212.594 131.143 212.527 132.036C212.474 132.655 212.434 133.248 212.394 133.841C212.6 133.175 213.06 131.803 213.093 131.689C213.833 130.225 214.933 128.973 216.291 128.052C216.365 127.885 216.456 127.727 216.564 127.579C216.753 127.288 217 127.041 217.291 126.852C217.582 126.663 217.909 126.538 218.251 126.484C218.594 126.43 218.944 126.448 219.279 126.538C219.613 126.628 219.925 126.788 220.194 127.006C221.78 128.339 221.38 132.122 220.654 133.841C220.614 133.941 220.021 134.987 219.642 135.64C219.928 135.293 220.194 134.973 220.494 134.587C221.074 133.881 221.673 133.188 222.313 132.442L223.292 131.383C223.612 131.016 223.998 130.677 224.351 130.324C225.184 129.518 226.07 128.738 226.983 127.972C226.356 127.466 224.178 125.621 223.552 124.368C222.926 123.116 222.479 121.364 223.132 120.045C223.275 119.728 223.483 119.445 223.743 119.214C224.002 118.983 224.308 118.809 224.639 118.704C224.97 118.599 225.32 118.565 225.665 118.604C226.011 118.644 226.344 118.756 226.643 118.932C228.408 120.038 228.588 123.802 228.128 125.594C228.128 125.707 227.622 126.966 227.349 127.652C227.902 127.199 228.448 126.74 229.021 126.32C230.673 125.041 232.385 123.802 234.084 122.556L235.636 121.404C235.416 121.224 232.778 119.092 232.072 117.693C231.453 116.448 231 114.689 231.652 113.363C231.796 113.047 232.004 112.765 232.264 112.534C232.524 112.304 232.829 112.13 233.16 112.026C233.491 111.921 233.84 111.887 234.186 111.925C234.531 111.964 234.864 112.075 235.163 112.251C236.928 113.363 237.108 117.127 236.649 118.912C236.615 119.052 235.929 120.864 235.729 121.317C236.868 120.464 237.994 119.612 239.06 118.726C240.52 117.534 241.899 116.248 243.19 114.875C243.09 114.795 240.326 112.584 239.606 111.145C238.98 109.899 238.534 108.141 239.187 106.822C239.329 106.505 239.536 106.222 239.795 105.991C240.054 105.76 240.359 105.586 240.69 105.481C241.021 105.376 241.37 105.342 241.715 105.381C242.059 105.421 242.392 105.532 242.691 105.709C244.463 106.815 244.643 110.579 244.183 112.371C244.15 112.484 243.63 113.869 243.364 114.522L243.47 114.582C244.734 113.167 245.868 111.642 246.861 110.026C247.414 109.146 247.9 108.274 248.353 107.408C247.794 107.048 245.269 105.409 244.476 104.157C243.683 102.904 243.084 101.292 243.583 99.9067C243.691 99.5807 243.865 99.2806 244.096 99.0257C244.326 98.7708 244.606 98.5666 244.92 98.4262C245.233 98.2858 245.572 98.2123 245.916 98.2103C246.259 98.2082 246.599 98.2778 246.914 98.4145C248.799 99.3205 249.386 103.044 249.126 104.89C249.126 104.99 248.859 105.995 248.666 106.728C248.859 106.335 249.073 105.936 249.252 105.556C249.919 104.13 250.485 102.785 250.951 101.559C251.218 100.893 251.437 100.226 251.617 99.6736C251.251 99.0074 249.825 96.4427 249.685 95.0105C249.546 93.5782 249.772 91.8195 250.858 90.8203C251.106 90.5774 251.402 90.3893 251.727 90.2683C252.052 90.1474 252.399 90.0962 252.745 90.1182C253.091 90.1402 253.429 90.2348 253.736 90.396C254.044 90.5571 254.313 90.7811 254.528 91.0535C255.781 92.7255 254.588 96.2961 253.509 97.8217C253.416 97.9482 251.717 99.8201 251.697 99.8201V99.7802C251.511 100.346 251.311 100.953 251.071 101.605C250.631 102.811 250.112 104.177 249.459 105.602C248.763 107.165 247.978 108.687 247.107 110.159C246.137 111.809 245.023 113.369 243.777 114.822L243.73 114.875C244.25 114.549 245.728 113.703 245.855 113.65C247.574 112.917 251.317 112.497 252.69 114.076C252.91 114.344 253.071 114.655 253.163 114.989C253.255 115.323 253.276 115.673 253.225 116.016C253.173 116.359 253.05 116.687 252.864 116.979C252.678 117.272 252.432 117.522 252.144 117.713C250.938 118.566 249.126 118.379 247.8 117.973C246.301 117.5 243.803 115.215 243.57 115.035C242.271 116.485 240.876 117.844 239.393 119.106C238.527 119.852 237.641 120.571 236.729 121.277C237.188 121.017 237.601 120.784 237.661 120.758C239.373 120.025 243.117 119.605 244.489 121.184C244.71 121.451 244.872 121.763 244.965 122.097C245.058 122.431 245.079 122.781 245.027 123.124C244.976 123.467 244.853 123.796 244.666 124.088C244.479 124.381 244.233 124.63 243.943 124.821C242.744 125.674 240.932 125.487 239.606 125.081C238.281 124.675 236.062 122.756 235.489 122.243L234.444 123.049C232.765 124.335 231.113 125.607 229.481 126.906C228.914 127.366 228.375 127.839 227.829 128.305C228.242 128.072 228.581 127.879 228.641 127.859C230.353 127.119 234.097 126.706 235.47 128.279C235.691 128.546 235.854 128.857 235.948 129.191C236.041 129.526 236.063 129.876 236.011 130.22C235.959 130.563 235.836 130.892 235.648 131.184C235.461 131.476 235.214 131.726 234.923 131.916C233.718 132.768 231.912 132.582 230.587 132.182C229.261 131.783 227.256 130.037 226.59 129.431C226.05 129.931 225.504 130.424 225.004 130.937C224.664 131.29 224.338 131.603 224.005 131.982C223.672 132.362 223.339 132.702 223.046 133.062C222.466 133.768 221.86 134.5 221.307 135.207C220.921 135.693 220.561 136.166 220.201 136.639C220.754 136.179 221.873 135.307 221.973 135.233C223.552 134.247 227.189 133.268 228.788 134.614C229.046 134.846 229.253 135.13 229.394 135.448C229.535 135.765 229.608 136.108 229.608 136.456C229.608 136.803 229.535 137.147 229.394 137.464C229.253 137.781 229.046 138.065 228.788 138.298C227.729 139.317 225.917 139.43 224.544 139.217C223.026 138.977 220.281 137.218 219.941 136.965C219.342 137.751 218.769 138.524 218.236 139.264C216.391 141.815 214.952 144.007 213.966 145.559L213.866 145.712L212.587 145.092C212.653 144.993 212.72 144.899 212.787 144.793C213.819 143.247 215.325 141.062 217.243 138.524C217.85 137.725 218.509 136.879 219.195 136.013C218.481 135.236 217.814 134.417 217.197 133.561C215.724 134.134 212.667 134.161 212.274 134.161C212.214 135.147 212.161 136.106 212.121 137.012C211.987 140.163 212.001 142.788 212.034 144.619V144.839L210.628 144.173C210.628 142.355 210.702 139.883 210.888 136.972C210.948 135.966 211.035 134.894 211.135 133.801C210.742 133.701 207.564 132.882 206.365 131.922C205.279 131.056 204.133 129.644 204.173 128.172C204.17 127.825 204.239 127.481 204.378 127.162C204.516 126.844 204.721 126.558 204.977 126.324C205.234 126.09 205.537 125.913 205.867 125.805C206.197 125.696 206.546 125.658 206.891 125.694C208.963 125.96 210.695 129.304 211.041 131.136C211.041 131.243 211.148 132.469 211.188 133.201C211.235 132.749 211.268 132.316 211.315 131.869C211.408 130.957 211.528 130.044 211.654 129.065C211.728 128.598 211.807 128.125 211.881 127.646C211.954 127.166 212.081 126.673 212.181 126.18C212.434 125.048 212.74 123.909 213.08 122.769C212.28 122.683 209.449 122.35 208.23 121.657C207.011 120.964 205.679 119.738 205.499 118.279C205.442 117.937 205.459 117.585 205.547 117.249C205.636 116.913 205.794 116.599 206.012 116.329C206.231 116.058 206.504 115.837 206.814 115.68C207.124 115.522 207.463 115.432 207.81 115.415C209.896 115.362 212.121 118.406 212.733 120.165C212.773 120.278 213.073 121.59 213.22 122.316C213.433 121.65 213.633 120.944 213.886 120.265C214.552 118.266 215.305 116.308 216.038 114.329C216.264 113.723 216.477 113.117 216.704 112.517C216.417 112.517 213.04 112.164 211.681 111.385C210.475 110.719 209.13 109.466 208.943 108.007C208.888 107.665 208.906 107.314 208.996 106.979C209.085 106.644 209.244 106.331 209.462 106.061C209.68 105.791 209.952 105.57 210.261 105.411C210.569 105.253 210.908 105.162 211.255 105.143C213.346 105.089 215.571 108.134 216.184 109.892C216.231 110.026 216.657 111.891 216.744 112.404C217.223 111.072 217.696 109.739 218.076 108.407C218.639 106.608 219.084 104.775 219.408 102.918C219.275 102.918 215.744 102.585 214.359 101.785C213.146 101.119 211.801 99.8668 211.621 98.4079C211.566 98.0652 211.584 97.7149 211.674 97.3796C211.763 97.0443 211.922 96.7316 212.14 96.4615C212.358 96.1915 212.63 95.9702 212.939 95.8121C213.247 95.6539 213.586 95.5624 213.933 95.5434C216.018 95.4968 218.243 98.5345 218.855 100.293C218.895 100.413 219.222 101.852 219.362 102.538H219.482C219.757 100.662 219.864 98.7645 219.801 96.869C219.801 95.8232 219.701 94.8306 219.602 93.858C218.935 93.858 215.911 93.858 214.579 93.2851C213.246 92.7122 211.827 91.6597 211.481 90.2274C211.389 89.8919 211.368 89.5407 211.421 89.1967C211.474 88.8527 211.598 88.5237 211.787 88.2313C211.976 87.9389 212.224 87.6896 212.516 87.4998C212.807 87.31 213.136 87.1839 213.48 87.1298C215.551 86.85 218.096 89.6279 218.902 91.3133C218.942 91.4065 219.288 92.3858 219.522 93.0986C219.475 92.6656 219.428 92.2126 219.368 91.7996C219.162 90.2341 218.869 88.8085 218.602 87.5561C218.442 86.8433 218.289 86.2238 218.136 85.6043C217.47 85.2712 214.858 83.8989 213.959 82.7864C213.06 81.6739 212.274 80.0818 212.627 78.6495C212.703 78.3081 212.851 77.9868 213.06 77.7067C213.27 77.4266 213.536 77.1942 213.842 77.0248C214.148 76.8554 214.487 76.7529 214.835 76.7241C215.184 76.6953 215.535 76.7408 215.864 76.8576Z" fill="white"/>
<path d="M253.622 109.053C251.99 108.986 248.726 107.314 248.726 107.308C248.726 107.301 250.478 105.496 250.605 105.396C252.064 104.23 255.568 102.844 257.306 103.997C257.59 104.197 257.828 104.455 258.006 104.754C258.183 105.052 258.296 105.384 258.337 105.729C258.378 106.074 258.346 106.424 258.243 106.755C258.14 107.087 257.968 107.393 257.739 107.654C256.807 108.773 255.015 109.106 253.622 109.053Z" fill="white"/>
</g>
<path d="M234.564 149.929C234.564 149.929 224.658 126.047 219.115 127.086C213.573 128.125 228.608 165.151 228.608 165.151C228.608 165.151 211.181 132.275 199.297 132.275C187.413 132.275 203.654 168.615 218.702 180.725C218.702 180.725 194.94 155.118 181.078 160.654C167.215 166.19 208.803 192.143 208.803 192.143C208.803 192.143 184.642 184.529 187.413 190.411C190.184 196.294 197.712 197.333 197.712 197.333L170.399 198.718H265.46L244.07 196.64C244.07 196.64 266.253 185.568 260.311 181.072C254.369 176.575 241.299 186.261 241.299 186.261C241.299 186.261 263.875 161.347 259.518 152.001C255.161 142.654 235.749 168.961 235.749 168.961C235.749 168.961 251.597 135.393 248.407 129.511C245.216 123.629 234.564 149.929 234.564 149.929Z" fill="#92E3A9"/>
<path opacity="0.4" d="M234.564 149.929C234.564 149.929 224.658 126.047 219.115 127.086C213.573 128.125 228.608 165.151 228.608 165.151C228.608 165.151 211.181 132.275 199.297 132.275C187.413 132.275 203.654 168.615 218.702 180.725C218.702 180.725 194.94 155.118 181.078 160.654C167.215 166.19 208.803 192.143 208.803 192.143C208.803 192.143 184.642 184.529 187.413 190.411C190.184 196.294 197.712 197.333 197.712 197.333L170.399 198.718H265.46L244.07 196.64C244.07 196.64 266.253 185.568 260.311 181.072C254.369 176.575 241.299 186.261 241.299 186.261C241.299 186.261 263.875 161.347 259.518 152.001C255.161 142.654 235.749 168.961 235.749 168.961C235.749 168.961 251.597 135.393 248.407 129.511C245.216 123.629 234.564 149.929 234.564 149.929Z" fill="white"/>
<path d="M237.734 151.181C229.014 176.928 229.014 195.148 229.014 195.148C229.014 195.148 239.313 195.541 250.012 187.62" stroke="#263238" stroke-width="0.590455" stroke-linecap="round" stroke-linejoin="round"/>
<path d="M233.378 165.051C231.579 157.352 229.194 149.802 226.243 142.468" stroke="#263238" stroke-width="0.590455" stroke-linecap="round" stroke-linejoin="round"/>
<path d="M207.631 149.995L229.807 182.87C229.807 182.87 244.862 170.213 250.012 163.065" stroke="#263238" stroke-width="0.590455" stroke-linecap="round" stroke-linejoin="round"/>
<path d="M229.414 190.798C229.414 190.798 206.046 179.706 196.539 173.391" stroke="#263238" stroke-width="0.590455" stroke-linecap="round" stroke-linejoin="round"/>
<path d="M208.436 13.5121H137.263C134.349 13.5121 131.987 15.8742 131.987 18.7881V193.442C131.987 196.356 134.349 198.718 137.263 198.718H208.436C211.349 198.718 213.712 196.356 213.712 193.442V18.7881C213.712 15.8742 211.349 13.5121 208.436 13.5121Z" fill="white" stroke="#263238" stroke-width="0.590455" stroke-linecap="round" stroke-linejoin="round"/>
<path d="M210.981 45.9341C210.693 45.9341 210.416 45.8197 210.213 45.6161C210.009 45.4125 209.895 45.1363 209.895 44.8483V30.2927C209.916 30.0185 210.04 29.7625 210.242 29.5758C210.444 29.3891 210.709 29.2854 210.984 29.2854C211.259 29.2854 211.524 29.3891 211.726 29.5758C211.928 29.7625 212.052 30.0185 212.073 30.2927V44.8216C212.076 44.9668 212.049 45.111 211.996 45.2459C211.942 45.3807 211.862 45.5035 211.76 45.6071C211.659 45.7107 211.537 45.793 211.403 45.8491C211.27 45.9052 211.126 45.9342 210.981 45.9341Z" fill="#263238"/>
<path d="M210.981 59.4174C210.693 59.4174 210.416 59.303 210.213 59.0993C210.009 58.8957 209.895 58.6195 209.895 58.3315V50.1977C209.916 49.9235 210.04 49.6675 210.242 49.4808C210.444 49.2941 210.709 49.1904 210.984 49.1904C211.259 49.1904 211.524 49.2941 211.726 49.4808C211.928 49.6675 212.052 49.9235 212.073 50.1977V58.3315C212.071 58.6201 211.955 58.8963 211.751 59.0997C211.546 59.3032 211.269 59.4174 210.981 59.4174Z" fill="#263238"/>
<path d="M202.274 13.5121H131.101C128.187 13.5121 125.825 15.8742 125.825 18.7881V193.442C125.825 196.356 128.187 198.718 131.101 198.718H202.274C205.188 198.718 207.55 196.356 207.55 193.442V18.7881C207.55 15.8742 205.188 13.5121 202.274 13.5121Z" fill="#263238" stroke="#263238" stroke-width="0.590455" stroke-linecap="round" stroke-linejoin="round"/>
<path d="M202.107 25.8428H131.268V184.696H202.107V25.8428Z" fill="#92E3A9"/>
<path d="M156.169 20.7666H175.028" stroke="white" stroke-width="1.77137" stroke-linecap="round" stroke-linejoin="round"/>
<path d="M164.15 190.318C164.15 191.617 163.337 192.67 162.331 192.67C161.325 192.67 160.519 191.617 160.519 190.318C160.519 189.019 161.332 187.96 162.331 187.96C163.33 187.96 164.15 189.012 164.15 190.318Z" fill="white"/>
<path d="M166.687 65.3727C173.472 65.3727 178.971 58.9603 178.971 51.0503C178.971 43.1402 173.472 36.7278 166.687 36.7278C159.903 36.7278 154.403 43.1402 154.403 51.0503C154.403 58.9603 159.903 65.3727 166.687 65.3727Z" fill="white"/>
<path d="M166.688 50.8703C169.263 50.8703 171.351 48.4336 171.351 45.4278C171.351 42.4219 169.263 39.9852 166.688 39.9852C164.112 39.9852 162.025 42.4219 162.025 45.4278C162.025 48.4336 164.112 50.8703 166.688 50.8703Z" fill="#263238" stroke="#263238" stroke-width="0.590455" stroke-linecap="round" stroke-linejoin="round"/>
<path d="M166.688 52.3159C162.024 52.3159 158.207 55.8932 158.207 60.3099C158.211 60.7209 158.249 61.1309 158.321 61.5356C159.355 62.7428 160.638 63.7119 162.083 64.3763C163.527 65.0407 165.098 65.3848 166.688 65.3848C168.277 65.3848 169.848 65.0407 171.293 64.3763C172.737 63.7119 174.02 62.7428 175.055 61.5356C175.121 61.1302 175.156 60.7205 175.161 60.3099C175.161 55.8932 171.364 52.3159 166.688 52.3159Z" fill="#263238" stroke="#263238" stroke-width="0.590455" stroke-linecap="round" stroke-linejoin="round"/>
<path d="M181.623 113.436H151.752C150.961 113.405 150.216 113.061 149.679 112.48C149.141 111.9 148.857 111.129 148.887 110.339V91.8992C148.887 81.274 156.881 72.6272 166.687 72.6272C176.493 72.6272 184.481 81.2873 184.481 91.8992V110.325C184.497 110.717 184.437 111.109 184.303 111.477C184.168 111.846 183.962 112.184 183.697 112.473C183.431 112.762 183.111 112.996 182.756 113.161C182.4 113.327 182.015 113.42 181.623 113.436ZM154.61 107.241H178.758V91.9192C178.758 84.7114 173.342 78.8425 166.687 78.8425C160.032 78.8425 154.61 84.7114 154.61 91.9192V107.241Z" fill="#263238"/>
<path d="M187.425 100.853H145.95V140.089H187.425V100.853Z" fill="white"/>
<path d="M172.73 127.865L169.652 120.464C170.333 119.95 170.883 119.283 171.259 118.517C171.635 117.751 171.826 116.908 171.817 116.054C171.817 113.103 169.612 110.725 166.887 110.725C164.163 110.725 161.965 113.11 161.965 116.054C161.954 116.907 162.144 117.75 162.519 118.516C162.894 119.282 163.443 119.949 164.123 120.464L161.052 127.865H172.73Z" fill="#263238" stroke="#263238" stroke-width="0.590455" stroke-linecap="round" stroke-linejoin="round"/>
<path d="M154.05 175.349C154.114 175.396 154.191 175.422 154.27 175.423C154.327 175.422 154.383 175.408 154.432 175.382C154.482 175.355 154.525 175.316 154.557 175.269L202.107 110.592V109.366L153.997 174.843C153.967 174.88 153.945 174.922 153.932 174.967C153.918 175.013 153.914 175.06 153.919 175.107C153.924 175.154 153.938 175.2 153.96 175.241C153.983 175.283 154.014 175.32 154.05 175.349Z" fill="white"/>
<path d="M192.541 49.1451C192.513 49.1835 192.493 49.2271 192.481 49.2734C192.47 49.3197 192.468 49.3679 192.475 49.415C192.483 49.4621 192.5 49.5073 192.525 49.5478C192.55 49.5884 192.583 49.6236 192.621 49.6514C192.7 49.7069 192.796 49.7296 192.891 49.7147C192.986 49.6997 193.071 49.6483 193.128 49.5715L202.108 37.3607V36.1616L192.541 49.1451Z" fill="white"/>
<path d="M131.268 133.728L189.97 53.9015C190.026 53.8238 190.05 53.7268 190.035 53.6318C190.02 53.5369 189.968 53.4518 189.89 53.3952C189.812 53.3387 189.715 53.3154 189.62 53.3304C189.525 53.3454 189.44 53.3975 189.384 53.4752L131.294 132.502L131.268 133.728Z" fill="white"/>
<path d="M148.534 183.223C148.591 183.222 148.647 183.209 148.698 183.183C148.748 183.158 148.793 183.122 148.827 183.077L152.158 178.574C152.187 178.535 152.207 178.492 152.218 178.445C152.23 178.399 152.232 178.351 152.224 178.304C152.217 178.257 152.2 178.211 152.175 178.171C152.15 178.13 152.117 178.095 152.078 178.067C152 178.012 151.903 177.989 151.809 178.004C151.714 178.019 151.629 178.07 151.572 178.147L148.241 182.644C148.213 182.682 148.192 182.725 148.18 182.771C148.168 182.817 148.165 182.865 148.172 182.912C148.179 182.959 148.195 183.005 148.22 183.045C148.244 183.086 148.276 183.122 148.314 183.15C148.377 183.2 148.455 183.225 148.534 183.223Z" fill="white"/>
<path d="M202.107 123.542L163.07 176.642C163.031 176.695 163.007 176.759 163.001 176.826C162.996 176.892 163.009 176.959 163.04 177.019C163.07 177.078 163.117 177.128 163.174 177.163C163.231 177.197 163.297 177.215 163.363 177.214C163.42 177.216 163.477 177.203 163.528 177.177C163.579 177.152 163.623 177.114 163.656 177.068L202.107 124.761V123.542Z" fill="white"/>
<path d="M65.0053 48.9119C65.6658 47.4484 65.9847 45.8538 65.9379 44.2488C65.9379 41.271 62.334 39.5457 58.0972 39.0727C53.8604 38.5997 51.9818 40.3251 52.608 41.4242C53.2588 42.3308 54.0531 43.1251 54.9596 43.7758C54.9596 43.7758 50.7228 41.4242 47.8983 43.3095C45.0738 45.1947 49.1573 44.4086 48.3713 46.2872C47.5852 48.1658 43.1952 47.3864 42.096 52.4026C40.9968 57.4188 44.1345 62.4416 41.3099 64.64C38.4854 66.8383 29.9852 63.8539 27.5071 69.3431C25.029 74.8322 28.5463 77.2704 22.5908 80.7211C16.6353 84.1718 12.292 87.5426 14.0173 96.0095C15.7427 104.476 21.3917 107.441 32.5299 104.45C43.6682 101.459 42.8821 94.7238 46.5193 87.7957C50.1566 80.8677 55.779 82.3066 57.5043 78.3829C59.2297 74.4592 57.0313 69.7561 57.1912 66.1455C57.3511 62.5349 60.955 61.7555 62.3673 57.4854C63.7796 53.2153 65.0053 48.9119 65.0053 48.9119Z" fill="#263238" stroke="#263238" stroke-width="0.590455" stroke-linecap="round" stroke-linejoin="round"/>
<path d="M15.3166 95.8496C15.0244 96.4394 14.8761 97.09 14.8836 97.7482" stroke="white" stroke-width="0.295228" stroke-linecap="round" stroke-linejoin="round"/>
<path d="M58.9835 45.801C58.9835 45.801 57.025 43.536 60.7955 44.5885C65.5452 45.9209 59.9695 51.4167 57.8244 52.5225C53.521 54.7275 47.832 54.0214 44.5012 58.0317C41.4768 61.6556 45.5604 65.4327 43.7484 68.3039C41.9365 71.175 34.682 69.5096 32.2705 72.967C29.859 76.4244 36.6471 83.8454 29.6991 87.9223C24.6762 90.8734 19.1737 92.0059 16.5157 94.3441" stroke="white" stroke-width="0.295228" stroke-linecap="round" stroke-linejoin="round"/>
<path d="M47.7187 59.2041C47.307 60.1675 47.182 61.2292 47.3589 62.2618C47.9585 64.8265 51.4358 69.6628 48.2649 72.3808C45.094 75.0987 39.6514 74.9455 38.7521 78.1297C37.8528 81.314 39.6581 90.0607 36.6404 94.1176C33.6227 98.1745 27.7272 97.8948 24.5562 100.613C21.3853 103.331 21.8383 104.843 21.8383 104.843" stroke="white" stroke-width="0.295228" stroke-linecap="round" stroke-linejoin="round"/>
<path d="M49.3172 56.2197C49.0426 56.6078 48.7891 57.0103 48.5577 57.4255" stroke="white" stroke-width="0.295228" stroke-linecap="round" stroke-linejoin="round"/>
<path d="M67.0372 95.6099L67.8033 101.605C67.8033 101.605 71.8003 105.602 74.7381 108.074C77.6758 110.545 85.2034 115.775 85.2034 115.775L81.3863 116.86C81.3863 116.86 68.9091 109.466 66.4443 108.866C63.9796 108.267 62.1343 104.71 61.3682 103.63C60.6021 102.551 65.0321 94.5307 67.0372 95.6099Z" fill="white" stroke="#263238" stroke-width="0.590455" stroke-linecap="round" stroke-linejoin="round"/>
<path d="M74.6578 193.156C74.6578 193.156 78.4283 196.34 79.9871 197.406C81.5459 198.472 83.3646 198.951 83.0781 199.531C82.7917 200.111 82.0123 200.69 78.3417 200.197C74.6712 199.704 73.612 198.459 72.9325 198.265C72.253 198.072 70.6142 198.558 69.3619 197.786C68.1095 197.013 70.0946 192.41 70.0946 192.41C70.6447 193.053 71.4046 193.481 72.2398 193.617C73.075 193.754 73.9316 193.59 74.6578 193.156Z" fill="white" stroke="#263238" stroke-width="0.590455" stroke-linecap="round" stroke-linejoin="round"/>
<path d="M83.0651 199.531C83.0681 199.5 83.0681 199.469 83.0651 199.438C80.9459 199.632 78.809 199.431 76.7633 198.845C74.3917 198.285 73.6922 197.026 71.434 197.026C70.5477 197.034 69.6667 196.89 68.8293 196.6C68.805 196.822 68.8354 197.047 68.9179 197.255C69.0003 197.463 69.1322 197.647 69.3022 197.792C70.5546 198.565 72.2001 198.079 72.8729 198.272C73.5457 198.465 74.6116 199.724 78.2821 200.204C81.9526 200.683 82.772 200.111 83.0651 199.531Z" fill="white" stroke="#263238" stroke-width="0.590455" stroke-linecap="round" stroke-linejoin="round"/>
<path d="M54.9196 64.4069C54.9196 64.4069 55.6457 69.2965 54.7131 71.2683C53.7804 73.2402 50.8626 73.4533 48.3712 73.873C45.8798 74.2927 40.1574 76.471 40.777 82.0868C41.3965 87.7025 48.5777 99.8666 48.5777 103.297C48.5777 106.728 46.3927 108.493 44.0012 115.148C41.6097 121.803 41.9228 134.181 42.6689 142.188C43.2157 147.473 44.2595 152.694 45.7865 157.783C45.7865 157.783 39.791 167.455 37.1264 171.612C34.4618 175.769 25.1355 193.869 25.1355 193.869C25.1355 193.869 25.1355 194.488 26.5877 194.908C27.6094 195.156 28.6665 195.226 29.712 195.114C29.712 195.114 47.5918 173.591 50.9226 169.953C54.2534 166.316 57.371 159.961 57.7841 157.057C58.1971 154.152 57.6841 136.366 57.6841 136.366C57.6841 136.366 61.4213 145.305 64.3458 149.882C66.1195 152.683 67.7471 155.573 69.2221 158.542C68.8125 162.306 68.8125 166.103 69.2221 169.867C69.9482 175.063 69.3353 191.757 70.0614 193.109C70.7875 194.462 73.6054 193.895 74.2316 193.276C74.8578 192.656 75.1509 188.613 75.1509 188.613C75.1509 188.613 76.3966 175.956 77.1494 170C77.9021 164.045 79.1479 158.975 78.7149 157.623C78.2819 156.271 75.6971 141.815 73.7186 134.973C71.7401 128.132 65.7247 115.322 64.3924 111.997C63.0601 108.673 62.3073 105.649 62.5205 104.61C62.7336 103.57 66.7839 97.3352 67.8498 95.6698C68.4574 94.5408 68.7925 93.2854 68.8284 92.0038C68.8643 90.7222 68.5998 89.4499 68.0563 88.2887C66.8106 85.5841 68.0563 81.9402 67.8498 79.7619C67.6432 77.5835 64.419 76.6376 62.7536 75.8116C61.0882 74.9855 60.462 73.1069 60.462 71.5481C60.5637 70.235 60.8811 68.9476 61.4013 67.7377C61.4013 67.7377 56.2719 64.4069 54.9196 64.4069Z" fill="white" stroke="#263238" stroke-width="0.590455" stroke-linecap="round" stroke-linejoin="round"/>
<path d="M67.5233 86.6498C66.9755 85.2578 66.5194 83.8314 66.1577 82.3798" stroke="#263238" stroke-width="0.590455" stroke-linecap="round" stroke-linejoin="round"/>
<path d="M54.0206 98.2278C54.0206 98.2278 55.8992 98.6408 59.663 96.7622" stroke="#263238" stroke-width="0.590455" stroke-linecap="round" stroke-linejoin="round"/>
<path d="M73.7386 134.907C71.8534 128.352 66.2643 116.381 64.5922 112.43C56.5983 115.428 49.124 112.87 45.6133 111.218C45.107 112.324 44.5608 113.603 44.0012 115.148C41.6097 121.81 41.9228 134.181 42.6689 142.188C43.2157 147.473 44.2595 152.694 45.7865 157.783C45.7865 157.783 39.791 167.455 37.1264 171.612C34.4618 175.769 25.1355 193.869 25.1355 193.869C25.1355 193.869 25.1355 194.488 26.5877 194.908C27.6094 195.156 28.6665 195.226 29.712 195.114C29.712 195.114 47.5918 173.591 50.9226 169.953C54.2534 166.316 57.371 159.961 57.7841 157.057C58.1971 154.152 57.6841 136.366 57.6841 136.366C57.6841 136.366 61.4213 145.305 64.3458 149.882C66.1195 152.683 67.7471 155.573 69.2221 158.542C68.8125 162.306 68.8125 166.103 69.2221 169.867C69.9482 175.063 69.3353 191.757 70.0614 193.109C70.7875 194.462 73.6054 193.895 74.2316 193.276C74.8578 192.656 75.1509 188.613 75.1509 188.613C75.1509 188.613 76.3966 175.956 77.1494 170C77.9021 164.045 79.1479 158.975 78.7149 157.623C78.2819 156.271 75.7171 141.768 73.7386 134.907Z" fill="#263238" stroke="#263238" stroke-width="0.590455" stroke-linecap="round" stroke-linejoin="round"/>
<path d="M114.468 128.305V126.946H115.607V116.274H114.468H103.223H102.084V126.946H103.223V128.305H102.077V130.783H106.467V129.95H111.223V130.783H115.613V128.305H114.468Z" fill="#92E3A9" stroke="#263238" stroke-width="0.590455" stroke-linecap="round" stroke-linejoin="round"/>
<path d="M41.7894 113.083H120.237C120.551 113.083 120.853 113.208 121.075 113.431C121.297 113.653 121.422 113.954 121.422 114.269V116.654C121.422 116.968 121.297 117.27 121.075 117.492C120.853 117.715 120.551 117.84 120.237 117.84H41.7894V113.077V113.083Z" fill="#92E3A9" stroke="#263238" stroke-width="0.590455" stroke-linecap="round" stroke-linejoin="round"/>
<path d="M98.0938 112.37H93.3175C92.9532 112.37 92.658 112.666 92.658 113.03V117.9C92.658 118.264 92.9532 118.559 93.3175 118.559H98.0938C98.4581 118.559 98.7533 118.264 98.7533 117.9V113.03C98.7533 112.666 98.4581 112.37 98.0938 112.37Z" fill="#92E3A9" stroke="#263238" stroke-width="0.590455" stroke-linecap="round" stroke-linejoin="round"/>
<path d="M44.244 117.468C45.3493 110.718 40.7737 104.351 34.0242 103.245C27.2746 102.14 20.907 106.716 19.8017 113.465C18.6964 120.215 23.272 126.582 30.0216 127.688C36.7711 128.793 43.1388 124.217 44.244 117.468Z" fill="#92E3A9" stroke="#263238" stroke-width="0.590455" stroke-linecap="round" stroke-linejoin="round"/>
<path d="M34.5681 115.435C35.2861 115.091 35.8953 114.556 36.329 113.888C36.7627 113.221 37.0039 112.447 37.0263 111.651C37.0263 109.22 34.788 107.248 32.0234 107.248C29.2588 107.248 27.0205 109.246 27.0205 111.651C27.0414 112.447 27.282 113.222 27.7158 113.89C28.1497 114.557 28.7598 115.092 29.4786 115.435C28.7602 115.78 28.1507 116.316 27.717 116.985C27.2834 117.653 27.0424 118.429 27.0205 119.225C27.0205 121.657 29.2588 123.629 32.0234 123.629C34.788 123.629 37.0263 121.63 37.0263 119.225C37.0029 118.429 36.7613 117.654 36.3278 116.986C35.8944 116.317 35.2857 115.781 34.5681 115.435Z" fill="white" stroke="#263238" stroke-width="0.590455" stroke-linecap="round" stroke-linejoin="round"/>
<path d="M82.7585 117.946C82.7585 117.946 86.6356 119.585 87.8347 119.585C89.0338 119.585 90.4194 118.379 91.1055 116.92C91.7917 115.461 91.7717 114.769 91.3653 115.115L90.506 115.781C90.506 115.781 91.1722 114.322 90.4194 114.495C89.8981 114.669 89.4654 115.04 89.2136 115.528C89.2136 115.528 89.127 114.236 88.4409 114.862C87.9868 115.273 87.5821 115.736 87.2351 116.241C87.2351 116.241 87.1485 114.609 86.7155 115.035C86.2825 115.461 84.6571 117.786 84.6571 117.786L82.7585 117.946Z" fill="white" stroke="#263238" stroke-width="0.590455" stroke-linecap="round" stroke-linejoin="round"/>
<path d="M87.2349 116.228C87.2349 116.228 86.9751 118.293 85.6895 118.639L87.2349 116.228Z" fill="white"/>
<path d="M87.2349 116.228C87.2349 116.228 86.9751 118.293 85.6895 118.639" stroke="#263238" stroke-width="0.590455" stroke-linecap="round" stroke-linejoin="round"/>
<path d="M89.2136 115.541C89.2136 115.541 88.5474 118.805 87.4949 119.325L89.2136 115.541Z" fill="white"/>
<path d="M89.2136 115.541C89.2136 115.541 88.5474 118.805 87.4949 119.325" stroke="#263238" stroke-width="0.590455" stroke-linecap="round" stroke-linejoin="round"/>
<path d="M90.5057 115.794C90.1622 116.986 89.7002 118.139 89.1267 119.238L90.5057 115.794Z" fill="white"/>
<path d="M90.5057 115.794C90.1622 116.986 89.7002 118.139 89.1267 119.238" stroke="#263238" stroke-width="0.590455" stroke-linecap="round" stroke-linejoin="round"/>
<path d="M62.5072 75.6117C61.8363 75.1587 61.2928 74.541 60.9289 73.8179C60.565 73.0947 60.3928 72.2903 60.4288 71.4815C60.5482 70.1891 60.8767 68.9248 61.4014 67.7377C61.4014 67.7377 56.3053 64.4069 54.9529 64.4069C54.9529 64.4069 55.6791 69.2965 54.7464 71.2683C54.4408 71.8817 53.9423 72.3778 53.3275 72.6806C54.5591 75.9965 56.2282 79.133 58.2904 82.0069C60.1623 84.3584 61.075 79.4022 62.5072 75.6117Z" fill="white" stroke="#263238" stroke-width="0.590455" stroke-linecap="round" stroke-linejoin="round"/>
<path d="M46.7793 74.5458C45.5081 74.7628 44.3048 75.2724 43.2643 76.0343C42.2238 76.7962 41.3746 77.7895 40.7839 78.9358C38.7321 82.8928 29.7656 100.852 30.5316 101.925C34.8883 108.054 50.7363 112.464 52.3484 114.076C53.9601 115.762 55.729 117.29 57.6311 118.639C59.2432 119.665 62.4608 119.225 63.047 118.932C63.6332 118.639 64.0729 117.32 63.047 117.32C62.655 117.325 62.2732 117.196 61.9652 116.953C61.6573 116.711 61.4418 116.37 61.3549 115.988C61.2084 115.401 62.967 116.574 63.8464 116.134C64.7257 115.695 61.8812 114.089 61.0019 113.356C60.1225 112.624 59.3898 111.604 58.2173 111.604C57.0449 111.604 54.8399 111.604 54.8399 111.604C54.8399 111.604 49.444 107.694 46.1798 104.783C43.6399 102.491 40.8694 100.468 37.9127 98.7474L47.8052 82.4731" fill="white"/>
<path d="M46.7793 74.5458C45.5081 74.7628 44.3048 75.2724 43.2643 76.0343C42.2238 76.7962 41.3746 77.7895 40.7839 78.9358C38.7321 82.8928 29.7656 100.852 30.5316 101.925C34.8883 108.054 50.7363 112.464 52.3484 114.076C53.9601 115.762 55.729 117.29 57.6311 118.639C59.2432 119.665 62.4608 119.225 63.047 118.932C63.6332 118.639 64.0729 117.32 63.047 117.32C62.655 117.325 62.2732 117.196 61.9652 116.953C61.6573 116.711 61.4418 116.37 61.3549 115.988C61.2084 115.401 62.967 116.574 63.8464 116.134C64.7257 115.695 61.8812 114.089 61.0019 113.356C60.1225 112.624 59.3898 111.604 58.2173 111.604C57.0449 111.604 54.8399 111.604 54.8399 111.604C54.8399 111.604 49.444 107.694 46.1798 104.783C43.6399 102.491 40.8694 100.468 37.9127 98.7474L47.8052 82.4731" stroke="#263238" stroke-width="0.590455" stroke-linecap="round" stroke-linejoin="round"/>
<path d="M60.9948 113.363C60.1155 112.63 59.3827 111.611 58.2103 111.611C57.0378 111.611 54.8328 111.611 54.8328 111.611C54.8328 111.611 49.4369 107.701 46.1728 104.79C43.6328 102.498 40.8624 100.475 37.9057 98.7541L41.8627 92.239C39.8397 91.0146 37.5256 90.3544 35.1611 90.3271C32.4965 95.8829 30.1049 101.372 30.498 101.952C34.8547 108.08 50.7027 112.49 52.3148 114.102C53.9264 115.788 55.6953 117.316 57.5974 118.666C59.2095 119.692 62.4271 119.252 63.0133 118.959C63.5995 118.666 64.0392 117.347 63.0133 117.347C62.6214 117.352 62.2395 117.222 61.9316 116.98C61.6236 116.737 61.4082 116.397 61.3213 116.014C61.1747 115.428 62.9334 116.601 63.8127 116.161C64.692 115.721 61.8742 114.102 60.9948 113.363Z" fill="white" stroke="#263238" stroke-width="0.590455" stroke-linecap="round" stroke-linejoin="round"/>
<path d="M66.3579 57.2322C65.8383 56.193 65.8383 55.3603 66.0448 53.9014C66.2513 52.4425 65.0056 48.9052 65.0056 48.9052C63.7332 51.1035 60.056 52.4092 58.4306 52.9021C56.6386 53.4484 59.2566 54.6874 58.9768 56.3462C58.6971 58.0049 55.1198 58.9642 55.1198 58.9642C55.1198 58.9642 54.0739 56.8125 52.6217 56.8125C51.1694 56.8125 50.1369 60.1433 50.9629 61.9086C51.1782 62.3977 51.5531 62.7991 52.0263 63.0472C52.4995 63.2953 53.043 63.3754 53.5676 63.2742C53.5676 63.2742 53.4677 66.3985 55.4395 67.3312C57.5435 68.3351 59.7384 69.1359 61.9946 69.7227C63.2403 69.9292 64.486 69.3097 65.0056 67.4378C65.412 65.5513 65.6902 63.6395 65.8383 61.7154C66.7106 61.1447 67.5132 60.474 68.2298 59.7169C68.7294 58.9975 66.8775 58.2714 66.3579 57.2322Z" fill="white" stroke="#263238" stroke-width="0.590455" stroke-linecap="round" stroke-linejoin="round"/>
<path d="M64.3325 57.2789C64.3325 57.8518 64.146 58.3114 63.9195 58.3114C63.693 58.3114 63.5065 57.8518 63.5065 57.2789C63.5065 56.706 63.693 56.2463 63.9195 56.2463C64.146 56.2463 64.3325 56.706 64.3325 57.2789Z" fill="#263238"/>
<path d="M62.5406 55.5602C62.5406 55.5602 63.6465 54.3145 64.4725 54.5943" stroke="#263238" stroke-width="0.590455" stroke-linecap="round" stroke-linejoin="round"/>
<path d="M64.4726 64.1004C63.9734 64.251 63.4435 64.2687 62.9353 64.1519C62.4271 64.0351 61.9582 63.7877 61.5748 63.4342" stroke="#263238" stroke-width="0.590455" stroke-linecap="round" stroke-linejoin="round"/>
<path d="M25.1822 193.869C25.1822 193.869 22.6974 198.852 22.7906 199.531C22.8839 200.211 27.8135 203.781 30.1184 205.034C32.4233 206.286 36.5935 206.486 36.3004 204.747C36.0073 203.008 32.0503 201.849 31.0844 199.238C30.57 197.887 30.1253 196.511 29.752 195.114C28.1418 195.138 26.5575 194.706 25.1822 193.869Z" fill="white" stroke="#263238" stroke-width="0.590455" stroke-linecap="round" stroke-linejoin="round"/>
<path d="M36.3138 204.774C34.5402 205.011 32.7354 204.755 31.0978 204.034C27.5205 202.482 24.0564 199.311 23.1038 198.412C22.9346 198.771 22.8266 199.156 22.7841 199.551C22.884 200.217 27.8069 203.801 30.1118 205.053C32.4167 206.306 36.5536 206.479 36.3138 204.774Z" fill="white" stroke="#263238" stroke-width="0.590455" stroke-linecap="round" stroke-linejoin="round"/>
</svg>
